<?xml version="1.0" encoding="UTF-8"?>
<svg version="1.1" xmlns="http://www.w3.org/2000/svg" width="5255" height="2048">
<path d="M0 0 C1.16108395 -0.00657338 1.16108395 -0.00657338 2.34562415 -0.01327956 C4.95345622 -0.02669209 7.56125448 -0.03285189 10.16911316 -0.03897095 C12.03319452 -0.04686992 13.89727434 -0.05513874 15.76135254 -0.06375122 C21.89489782 -0.08999284 28.02845 -0.10527998 34.16203308 -0.11953735 C36.2712371 -0.12489596 38.38044108 -0.13027347 40.489645 -0.13566971 C49.26108235 -0.15730067 58.03251783 -0.17603873 66.80397511 -0.1872921 C79.38686152 -0.20354003 91.96943954 -0.23673591 104.55220968 -0.29369295 C113.3930194 -0.3323515 122.2337465 -0.35191989 131.07463855 -0.35721266 C136.35831795 -0.36087144 141.6416686 -0.37294866 146.92525673 -0.4053154 C151.89524903 -0.43532448 156.86471243 -0.44173347 161.83477592 -0.42993164 C163.65972487 -0.42971031 165.48469784 -0.43806427 167.30956268 -0.45558548 C169.80003346 -0.47819743 172.28857337 -0.47002074 174.77905273 -0.45410156 C175.50240446 -0.46798365 176.22575619 -0.48186574 176.97102767 -0.49616849 C180.87738053 -0.43458221 182.41744983 0.01497697 185.4308424 2.59033775 C186.14006501 3.43631334 186.84928762 4.28228893 187.58000183 5.15390015 C188.30187683 5.69015015 189.02375183 6.22640015 189.76750183 6.77890015 C192.48165073 8.83790966 193.51527351 10.95971517 194.58000183 14.15390015 C195.57000183 14.48390015 196.56000183 14.81390015 197.58000183 15.15390015 C197.58000183 15.81390015 197.58000183 16.47390015 197.58000183 17.15390015 C198.57000183 17.81390015 199.56000183 18.47390015 200.58000183 19.15390015 C200.58000183 19.81390015 200.58000183 20.47390015 200.58000183 21.15390015 C201.24000183 21.15390015 201.90000183 21.15390015 202.58000183 21.15390015 C203.24000183 22.47390015 203.90000183 23.79390015 204.58000183 25.15390015 C205.24000183 24.82390015 205.90000183 24.49390015 206.58000183 24.15390015 C206.97187683 25.20577515 207.36375183 26.25765015 207.76750183 27.34140015 C209.37722664 31.10498209 211.56912646 33.3580873 214.58000183 36.15390015 C219.58000183 41.63073938 219.58000183 41.63073938 219.58000183 44.15390015 C220.57000183 44.48390015 221.56000183 44.81390015 222.58000183 45.15390015 C223.89640808 46.7828064 223.89640808 46.7828064 225.14250183 48.71640015 C226.329922 50.62280135 226.329922 50.62280135 227.58000183 52.15390015 C228.24000183 52.15390015 228.90000183 52.15390015 229.58000183 52.15390015 C229.97187683 53.04077515 230.36375183 53.92765015 230.76750183 54.84140015 C232.67728581 58.331695 234.67693985 60.45819973 237.58000183 63.15390015 C242.46889072 67.82056681 242.46889072 67.82056681 243.58000183 71.15390015 C245.22368323 72.84323937 246.89428943 74.50649939 248.58000183 76.15390015 C253.58000183 81.65525516 253.58000183 81.65525516 253.58000183 84.15390015 C254.24000183 84.15390015 254.90000183 84.15390015 255.58000183 84.15390015 C257.08781433 85.61483765 257.08781433 85.61483765 258.70500183 87.52890015 C259.51324402 88.46862671 259.51324402 88.46862671 260.33781433 89.42733765 C261.58000183 91.15390015 261.58000183 91.15390015 261.58000183 93.15390015 C262.24000183 93.15390015 262.90000183 93.15390015 263.58000183 93.15390015 C263.91000183 93.81390015 264.24000183 94.47390015 264.58000183 95.15390015 C265.57000183 95.81390015 266.56000183 96.47390015 267.58000183 97.15390015 C267.58000183 97.81390015 267.58000183 98.47390015 267.58000183 99.15390015 C268.57000183 99.81390015 269.56000183 100.47390015 270.58000183 101.15390015 C271.58000183 102.82056681 272.58000183 104.48723348 273.58000183 106.15390015 C274.57000183 106.81390015 275.56000183 107.47390015 276.58000183 108.15390015 C277.58642934 109.81669342 278.5858559 111.48373499 279.58000183 113.15390015 C280.87103826 114.52822925 282.20567273 115.86286371 283.58000183 117.15390015 C284.95087098 118.4486099 286.2934102 119.77540911 287.58000183 121.15390015 C287.58000183 121.81390015 287.58000183 122.47390015 287.58000183 123.15390015 C288.57000183 123.48390015 289.56000183 123.81390015 290.58000183 124.15390015 C291.26325227 125.47881186 291.92634713 126.81413981 292.58000183 128.15390015 C294.8749768 130.81341988 297.2749003 133.35320862 299.68156433 135.91171265 C301.58000183 138.15390015 301.58000183 138.15390015 301.58000183 140.15390015 C302.17812683 140.38077515 302.77625183 140.60765015 303.39250183 140.84140015 C305.58000183 142.15390015 305.58000183 142.15390015 306.82218933 144.2749939 C309.13146316 148.05707125 311.96272281 151.21668686 314.89250183 154.52890015 C316.0137766 155.80738725 317.13487115 157.08603242 318.25578308 158.36483765 C319.08239441 159.30371826 319.08239441 159.30371826 319.92570496 160.26156616 C322.04998969 162.69151466 324.13896443 165.1505827 326.22184753 167.61605835 C327.57092756 169.14362532 328.98593277 170.55481082 330.45500183 171.96640015 C332.58000183 174.15390015 332.58000183 174.15390015 332.58000183 176.15390015 C333.57000183 176.15390015 334.56000183 176.15390015 335.58000183 176.15390015 C335.66250183 176.73140015 335.74500183 177.30890015 335.83000183 177.90390015 C336.80299917 180.82289216 338.32087291 182.08841085 340.58000183 184.15390015 C344.38995253 187.73973609 344.38995253 187.73973609 345.40812683 189.95858765 C347.46775942 193.81696604 350.70218183 196.74435649 353.68156433 199.91171265 C355.58000183 202.15390015 355.58000183 202.15390015 355.58000183 204.15390015 C356.24000183 204.15390015 356.90000183 204.15390015 357.58000183 204.15390015 C360.97995936 207.20514409 363.30479418 210.22399602 365.58000183 214.15390015 C366.13687683 214.71077515 366.69375183 215.26765015 367.26750183 215.84140015 C367.70062683 216.27452515 368.13375183 216.70765015 368.58000183 217.15390015 C368.58000183 217.81390015 368.58000183 218.47390015 368.58000183 219.15390015 C369.78656433 219.52515015 369.78656433 219.52515015 371.01750183 219.90390015 C371.86312683 220.31640015 372.70875183 220.72890015 373.58000183 221.15390015 C373.94548628 222.47878128 374.27375843 223.81408528 374.58000183 225.15390015 C376.20103151 226.86498703 377.87503646 228.5264332 379.58000183 230.15390015 C380.49019592 231.20412409 381.38631676 232.26672043 382.26750183 233.34140015 C384.45028235 236.08891397 384.45028235 236.08891397 386.58000183 238.15390015 C387.52975821 239.41559997 388.46583365 240.68764696 389.39250183 241.96640015 C391.8914788 245.33064032 394.57556476 248.224574 397.58000183 251.15390015 C403.05088454 257.20479048 408.07190462 263.66932227 413.09562683 270.09140015 C415.22146011 272.75509485 416.26986436 274.05052099 419.58000183 275.15390015 C419.84812683 275.89640015 420.11625183 276.63890015 420.39250183 277.40390015 C421.97876265 281.07734625 424.50640353 282.65660152 427.58000183 285.15390015 C428.83000183 287.27890015 428.83000183 287.27890015 429.58000183 289.15390015 C430.24000183 290.14390015 430.90000183 291.13390015 431.58000183 292.15390015 C431.83197484 294.33782203 431.83197484 294.33782203 431.83481085 296.93797177 C431.84370286 298.42737114 431.84370286 298.42737114 431.8527745 299.94685939 C431.84912482 301.04276801 431.84547514 302.13867663 431.84171486 303.26779461 C431.84571092 304.43285724 431.84970698 305.59791987 431.85382414 306.79828742 C431.86294589 310.05186024 431.86305181 313.30529403 431.85947342 316.55887324 C431.85777337 320.09098274 431.86761524 323.6230625 431.87602746 327.15515977 C431.88918041 333.35204451 431.89488708 339.5489019 431.89578819 345.74580002 C431.89716151 354.96042357 431.90992864 364.17500639 431.92507594 373.38961633 C431.95022835 388.88836836 431.96607257 404.38711697 431.97665787 419.88588524 C431.9871727 435.23718186 432.00179645 450.58846545 432.02193832 465.93975258 C432.02318719 466.89335294 432.02443606 467.84695331 432.02572277 468.82945066 C432.0320863 473.67207476 432.03852354 478.51469876 432.04498915 483.35732273 C432.09068238 517.68005203 432.12711692 552.00278556 432.15812683 586.32553101 C432.18827838 619.67482116 432.22261113 653.02410272 432.26261902 686.37338257 C432.26385002 687.40089846 432.26508103 688.42841435 432.26634933 689.48706708 C432.27871592 699.80556746 432.29116767 710.12406774 432.30368181 720.44256794 C432.32917387 741.46355769 432.35409743 762.48454811 432.37867737 783.50553894 C432.37980828 784.47210345 432.38093919 785.43866796 432.38210437 786.4345223 C432.41674626 816.0678011 432.44897802 845.70108184 432.47883606 875.33436584 C432.47968489 876.17588006 432.48053373 877.01739428 432.48140828 877.88440893 C432.5157581 911.97423789 432.54755957 946.06406933 432.58000183 980.15390015 C476.80000183 980.15390015 521.02000183 980.15390015 566.58000183 980.15390015 C566.55381775 959.30822876 566.52763367 938.46255737 566.50065613 916.98519897 C566.48390881 903.06786638 566.46724566 889.15053406 566.45175171 875.23320007 C566.45076504 874.34914479 566.44977837 873.46508951 566.4487618 872.55424468 C566.41564811 842.80423887 566.38938977 813.05423114 566.36828613 783.30421448 C566.36759585 782.3335956 566.36690556 781.36297671 566.36619436 780.36294514 C566.35123101 759.27051164 566.33737993 738.17807754 566.32467518 717.08564257 C566.31843831 706.74242816 566.31195557 696.39921392 566.30534363 686.05599976 C566.30436293 684.51206053 566.30436293 684.51206053 566.30336243 682.9369306 C566.28204273 649.5541102 566.24447654 616.17133201 566.19851573 582.7885372 C566.15138402 548.49312826 566.12058188 514.1977427 566.11042688 479.90230193 C566.10898603 475.06209758 566.10735785 470.22189332 566.10561562 465.38168907 C566.1052785 464.42903551 566.10494139 463.47638194 566.10459406 462.49486008 C566.09867763 447.13868969 566.07546627 431.78259144 566.04584166 416.42645051 C566.01645063 401.00109239 566.00515056 385.57580604 566.01249494 370.15042088 C566.01630769 360.97761907 566.00607191 351.80507921 565.97601412 342.63232453 C565.95732167 336.5116258 565.956643 330.39109942 565.97084276 324.27038898 C565.97842129 320.77847306 565.97794882 317.28705392 565.95558592 313.79519043 C565.93569147 310.0395191 565.94622883 306.28515632 565.96476269 302.52950764 C565.95162762 301.4372487 565.93849255 300.34498976 565.92495945 299.21963206 C566.0075485 291.87791347 566.0075485 291.87791347 569.01689178 288.07183093 C570.28563125 287.12245519 570.28563125 287.12245519 571.58000183 286.15390015 C573.16758403 284.13889197 574.62942927 282.08181846 576.08000183 279.96640015 C577.58000183 278.15390015 577.58000183 278.15390015 580.58000183 277.15390015 C580.58000183 276.49390015 580.58000183 275.83390015 580.58000183 275.15390015 C581.24000183 275.15390015 581.90000183 275.15390015 582.58000183 275.15390015 C582.80687683 274.61765015 583.03375183 274.08140015 583.26750183 273.52890015 C584.99407411 270.4046265 587.25174343 267.83589947 589.58000183 265.15390015 C590.04664246 264.60604858 590.51328308 264.05819702 590.99406433 263.4937439 C593.11019628 261.009835 595.23571458 258.53856223 597.41203308 256.10702515 C600.553006 252.58913548 603.19757299 249.23806387 605.58000183 245.15390015 C607.64250183 242.84140015 607.64250183 242.84140015 609.58000183 241.15390015 C610.24000183 241.15390015 610.90000183 241.15390015 611.58000183 241.15390015 C611.84812683 240.59702515 612.11625183 240.04015015 612.39250183 239.46640015 C613.68899679 236.9416468 615.00476506 234.5167553 616.58000183 232.15390015 C617.24000183 232.15390015 617.90000183 232.15390015 618.58000183 232.15390015 C618.58000183 231.49390015 618.58000183 230.83390015 618.58000183 230.15390015 C620.20719379 228.44867234 621.8816649 226.78828297 623.58000183 225.15390015 C629.50147136 218.95229584 634.90803348 212.61829697 639.79093933 205.5640564 C641.55891075 203.18231323 643.45243481 201.21419232 645.58000183 199.15390015 C646.6756231 197.93567364 647.75902197 196.70634528 648.83000183 195.46640015 C652.13838443 191.65068458 655.50053854 187.88650675 658.88078308 184.1343689 C660.73005065 182.05970973 660.73005065 182.05970973 662.58000183 179.15390015 C663.26062683 178.49390015 663.94125183 177.83390015 664.64250183 177.15390015 C666.79995766 175.21563565 666.79995766 175.21563565 667.58000183 172.15390015 C668.38437683 171.51452515 669.18875183 170.87515015 670.01750183 170.21640015 C672.60540685 168.1334522 673.18411242 167.03292205 674.58000183 164.15390015 C676.22488477 162.46573082 677.89337725 160.800367 679.58000183 159.15390015 C682.59548281 156.06237126 682.59548281 156.06237126 683.58000183 152.15390015 C685.56000183 151.65890015 685.56000183 151.65890015 687.58000183 151.15390015 C687.64187683 150.31858765 687.64187683 150.31858765 687.70500183 149.46640015 C688.8042278 146.56130293 690.61498644 145.38114828 693.02140808 143.5171814 C695.41273923 141.4255158 696.9128003 138.83333117 698.58000183 136.15390015 C699.24000183 135.49390015 699.90000183 134.83390015 700.58000183 134.15390015 C701.40500183 133.14327515 702.23000183 132.13265015 703.08000183 131.09140015 C705.58000183 128.15390015 705.58000183 128.15390015 707.58000183 127.15390015 C707.58000183 126.16390015 707.58000183 125.17390015 707.58000183 124.15390015 C708.24000183 124.15390015 708.90000183 124.15390015 709.58000183 124.15390015 C709.91000183 123.16390015 710.24000183 122.17390015 710.58000183 121.15390015 C711.24000183 121.15390015 711.90000183 121.15390015 712.58000183 121.15390015 C713.24000183 120.16390015 713.90000183 119.17390015 714.58000183 118.15390015 C715.24000183 117.16390015 715.90000183 116.17390015 716.58000183 115.15390015 C717.24000183 115.15390015 717.90000183 115.15390015 718.58000183 115.15390015 C718.82750183 114.57640015 719.07500183 113.99890015 719.33000183 113.40390015 C720.58000183 111.15390015 720.58000183 111.15390015 722.70500183 109.09140015 C724.92771254 107.24396688 724.92771254 107.24396688 724.58000183 104.15390015 C725.28640808 103.73237671 725.99281433 103.31085327 726.72062683 102.8765564 C730.39218072 100.66459565 732.64283452 97.88336118 735.33000183 94.59140015 C735.82371277 94.00165405 736.31742371 93.41190796 736.82609558 92.80429077 C739.46776539 89.65851712 739.46776539 89.65851712 741.58000183 86.15390015 C742.24000183 86.15390015 742.90000183 86.15390015 743.58000183 86.15390015 C743.25000183 84.83390015 742.92000183 83.51390015 742.58000183 82.15390015 C743.32250183 81.76202515 744.06500183 81.37015015 744.83000183 80.96640015 C748.77418102 78.3668275 751.08447645 75.64047629 752.58000183 71.15390015 C753.24000183 71.15390015 753.90000183 71.15390015 754.58000183 71.15390015 C756.9286993 69.18099427 757.5810247 68.15083153 758.58000183 65.15390015 C760.21384258 63.79236619 761.84891371 62.43228157 763.49015808 61.0796814 C766.80548473 58.02462339 769.49355415 54.50015426 772.29484558 50.9781189 C775.08097973 47.53474285 778.03930871 44.27718796 781.04875183 41.02890015 C782.7857886 39.12845054 782.7857886 39.12845054 783.58000183 36.15390015 C784.88794514 34.79565133 786.2290108 33.46933878 787.58000183 32.15390015 C788.7553517 30.82821483 789.92127745 29.49414143 791.08000183 28.15390015 C792.9828861 25.95292457 794.86826097 23.87322678 796.95500183 21.84140015 C798.82211154 20.14467273 798.82211154 20.14467273 799.58000183 17.15390015 C800.91333516 16.15390015 802.2466685 15.15390015 803.58000183 14.15390015 C803.91000183 13.16390015 804.24000183 12.17390015 804.58000183 11.15390015 C805.38437683 10.51452515 806.18875183 9.87515015 807.01750183 9.21640015 C809.63842104 7.40767965 809.63842104 7.40767965 810.58000183 5.09140015 C812.0495468 2.24415677 813.69840377 1.53413406 816.58000183 0.15390015 C819.26593525 -0.12285739 821.71314761 -0.23919368 824.39440918 -0.2068634 C825.56462979 -0.21070832 825.56462979 -0.21070832 826.75849122 -0.2146309 C829.3688837 -0.2195667 831.97869597 -0.20307946 834.58903503 -0.18667603 C836.46166978 -0.18582971 838.33430553 -0.18630499 840.2069397 -0.18800354 C845.28921332 -0.18886473 850.37127479 -0.17121875 855.45349908 -0.15028167 C860.76528363 -0.13153566 866.07707297 -0.12976606 871.3888855 -0.12620544 C881.44690063 -0.11687889 891.50481802 -0.09225679 901.5627901 -0.06215698 C913.01370223 -0.02863202 924.46461901 -0.01213174 935.91556799 0.00292933 C959.47043348 0.03429219 983.02521218 0.08706462 1006.58000183 0.15390015 C1008.82393891 3.75025402 1008.8294721 6.72089361 1008.82839882 10.9088347 C1008.830955 11.59170811 1008.83351117 12.27458152 1008.8361448 12.97814806 C1008.84230274 15.28174033 1008.83412629 17.58506176 1008.82609749 19.88864517 C1008.82757605 21.55780584 1008.82993245 23.22696591 1008.83309048 24.89612424 C1008.83925259 29.51199119 1008.83285844 34.12777063 1008.82453422 38.74363108 C1008.81768664 43.75423145 1008.82240343 48.76482261 1008.8256892 53.77542472 C1008.8298445 62.56666791 1008.82653581 71.35788409 1008.81841278 80.14912415 C1008.8063675 93.22147588 1008.80573886 106.2938105 1008.80749676 119.36616677 C1008.81012778 141.35346288 1008.80344407 163.34074881 1008.79146194 185.32804108 C1008.77962202 207.10637723 1008.77191277 228.88470844 1008.76975632 250.66304779 C1008.76968749 251.33908967 1008.76961867 252.01513155 1008.76954776 252.71165954 C1008.76892137 258.8861484 1008.76834599 265.06063726 1008.76783181 271.23512613 C1008.76655292 286.58506377 1008.76463422 301.9350013 1008.76228142 317.28493881 C1008.76217478 317.98398552 1008.76206815 318.68303223 1008.76195828 319.40326217 C1008.75671367 353.41812512 1008.74409791 387.43298482 1008.73088074 421.44784546 C1008.72629747 433.25359088 1008.72174676 445.05933631 1008.71733093 456.86508179 C1008.71692009 457.96335353 1008.71692009 457.96335353 1008.71650094 459.08381257 C1008.70381567 493.11320549 1008.69636253 527.14259898 1008.69026134 561.17199364 C1008.68986521 563.38087193 1008.68946683 565.58975021 1008.68906798 567.7986285 C1008.68642845 582.43682833 1008.68387915 597.07502818 1008.68139027 611.71322804 C1008.6764371 640.84027594 1008.67095373 669.96732373 1008.66510617 699.09437147 C1008.66482769 700.48151618 1008.66454958 701.86866089 1008.66427185 703.25580559 C1008.64991877 774.92390623 1008.62711059 846.59200359 1008.60221863 918.26010132 C1008.60169842 919.75812966 1008.60169842 919.75812966 1008.60116769 921.28642121 C1008.59433826 940.90891427 1008.58713427 960.53140719 1008.58000183 980.15390015 C1052.14000183 980.48390015 1095.70000183 980.81390015 1140.58000183 981.15390015 C1140.58000183 1045.17390015 1140.58000183 1109.19390015 1140.58000183 1175.15390015 C717.52000183 1175.48390015 294.46000183 1175.81390015 -141.41999817 1176.15390015 C-142.4294873 1172.11594363 -142.54056202 1168.53678419 -142.50228882 1164.42178345 C-142.49905969 1163.63840725 -142.49583056 1162.85503105 -142.49250358 1162.04791617 C-142.48043158 1159.42075968 -142.46105805 1156.79370783 -142.44172668 1154.16659546 C-142.43158357 1152.28425829 -142.42188993 1150.40191866 -142.41261292 1148.51957703 C-142.3861352 1143.40630665 -142.35335496 1138.29309363 -142.31946301 1133.17986774 C-142.28511679 1127.83739025 -142.25653928 1122.49488201 -142.22735596 1117.15237427 C-142.17120566 1107.03413881 -142.10984979 1096.91594184 -142.04663461 1086.79774833 C-141.96151814 1073.12604509 -141.88442069 1059.45429681 -141.80688 1045.7825489 C-141.68448521 1024.23962319 -141.55135718 1002.69677739 -141.41999817 981.15390015 C-98.18999817 980.82390015 -54.95999817 980.49390015 -10.41999817 980.15390015 C-10.08999817 657.08390015 -9.75999817 334.01390015 -9.41999817 1.15390015 C-6.40904052 -0.35157868 -3.30305816 0.00225209 0 0 Z M813.58000183 127.15390015 C813.16750183 127.87577515 812.75500183 128.59765015 812.33000183 129.34140015 C810.3978811 132.44659417 808.19436495 134.60033617 805.58000183 137.15390015 C804.46148519 138.37002319 803.35753758 139.59968489 802.26750183 140.84140015 C801.75574402 141.42276733 801.24398621 142.00413452 800.71672058 142.6031189 C799.38293933 144.10228287 799.38293933 144.10228287 799.58000183 146.15390015 C799.02312683 146.36015015 798.46625183 146.56640015 797.89250183 146.77890015 C794.58396952 148.74613558 792.86443904 151.04452728 790.58000183 154.15390015 C790.58000183 155.14390015 790.58000183 156.13390015 790.58000183 157.15390015 C790.00250183 157.38077515 789.42500183 157.60765015 788.83000183 157.84140015 C785.98260374 159.50238237 784.4593299 161.46914576 782.58000183 164.15390015 C782.58000183 164.81390015 782.58000183 165.47390015 782.58000183 166.15390015 C781.59000183 166.48390015 780.60000183 166.81390015 779.58000183 167.15390015 C779.43562683 167.79327515 779.29125183 168.43265015 779.14250183 169.09140015 C778.95687683 169.77202515 778.77125183 170.45265015 778.58000183 171.15390015 C777.98574402 171.44522827 777.39148621 171.7365564 776.77922058 172.03671265 C774.17794308 173.35814314 772.74154322 174.89802893 770.83000183 177.09140015 C770.21640808 177.78104858 769.60281433 178.47069702 768.97062683 179.1812439 C767.29191446 181.16030553 767.29191446 181.16030553 767.58000183 184.15390015 C766.72922058 184.50001343 766.72922058 184.50001343 765.86125183 184.8531189 C762.99537059 186.48726008 761.25087182 188.48699898 759.08000183 190.96640015 C758.32718933 191.81847046 757.57437683 192.67054077 756.79875183 193.5484314 C756.06656433 194.40823608 755.33437683 195.26804077 754.58000183 196.15390015 C753.82718933 197.02401733 753.07437683 197.89413452 752.29875183 198.7906189 C750.28591598 201.07123637 750.28591598 201.07123637 750.58000183 204.15390015 C749.97929871 204.42033325 749.37859558 204.68676636 748.75968933 204.96127319 C746.52107325 206.18614322 745.33204541 207.29548659 743.70500183 209.2359314 C743.19453308 209.83856812 742.68406433 210.44120483 742.15812683 211.06210327 C741.63734558 211.69052124 741.11656433 212.31893921 740.58000183 212.96640015 C740.05922058 213.58321655 739.53843933 214.20003296 739.00187683 214.83554077 C733.54023644 221.30353682 733.54023644 221.30353682 728.58000183 228.15390015 C726.91333516 229.82056681 725.2466685 231.48723348 723.58000183 233.15390015 C722.296748 234.53832337 721.02635182 235.93474996 719.76750183 237.34140015 C718.86064636 238.35266968 718.86064636 238.35266968 717.93547058 239.3843689 C716.37730171 241.04701663 716.37730171 241.04701663 716.58000183 243.15390015 C715.59000183 243.81390015 714.60000183 244.47390015 713.58000183 245.15390015 C713.58000183 245.81390015 713.58000183 246.47390015 713.58000183 247.15390015 C712.09500183 247.64890015 712.09500183 247.64890015 710.58000183 248.15390015 C707.54722985 251.20898041 707.54722985 251.20898041 706.58000183 255.15390015 C705.92000183 255.15390015 705.26000183 255.15390015 704.58000183 255.15390015 C702.18179878 257.79074762 702.18179878 257.79074762 701.58000183 261.15390015 C700.59000183 261.48390015 699.60000183 261.81390015 698.58000183 262.15390015 C697.09989114 263.78603771 695.69241465 265.48480204 694.33000183 267.21640015 C691.57422403 270.66893862 688.81495833 274.09091494 685.89250183 277.40390015 C685.33691589 278.03425171 684.78132996 278.66460327 684.20890808 279.3140564 C683.11322324 280.55162848 682.01685696 281.78859754 680.91984558 283.0249939 C678.65986763 285.60703259 676.66362136 288.01453426 674.89250183 290.96640015 C673.58000183 293.15390015 673.58000183 293.15390015 670.58000183 295.15390015 C670.58000183 296.14390015 670.58000183 297.13390015 670.58000183 298.15390015 C669.92000183 298.15390015 669.26000183 298.15390015 668.58000183 298.15390015 C668.58000183 298.81390015 668.58000183 299.47390015 668.58000183 300.15390015 C668.00765808 300.37948608 667.43531433 300.60507202 666.84562683 300.8374939 C663.93774465 302.52707372 662.39957937 304.56987203 660.33000183 307.21640015 C659.62359558 308.11487671 658.91718933 309.01335327 658.18937683 309.9390564 C657.60422301 310.69556902 657.60422301 310.69556902 657.0072479 311.46736473 C655.58000183 313.15390015 655.58000183 313.15390015 653.60978726 315.03584388 C648.61732822 319.97016864 646.66300677 323.38668636 646.53193402 330.42099443 C646.55295013 331.45461495 646.57396624 332.48823548 646.5956192 333.55317783 C646.58638845 334.67620069 646.57715769 335.79922355 646.56764722 336.9562774 C646.54645369 340.72326816 646.58236763 344.48752864 646.6179657 348.25437927 C646.61893253 350.98042442 646.6078102 353.70639044 646.59725237 356.43241209 C646.5806884 362.36089606 646.59376639 368.28873681 646.62635803 374.21714592 C646.67468484 383.03229771 646.67704033 391.84704486 646.67002212 400.66230498 C646.65951576 415.49152073 646.6862234 430.32045111 646.73416138 445.14958382 C646.78150225 459.83164952 646.81228984 474.51359636 646.82098389 489.19573784 C646.8215338 490.10872171 646.82208372 491.02170558 646.8226503 491.96235563 C646.82535698 496.59896449 646.82776804 501.23557346 646.83006531 505.87218254 C646.84686735 538.71087959 646.9007626 571.5494214 646.97648621 604.38803101 C647.0499644 636.28971532 647.10663193 668.19135715 647.14054871 700.09310913 C647.14160092 701.07650824 647.14265312 702.05990735 647.14373722 703.07310644 C647.1542854 712.94883009 647.16449191 722.82455408 647.17444809 732.70027835 C647.19473765 752.8181576 647.21730766 772.93603408 647.24125671 793.0539093 C647.24235503 793.97889089 647.24345335 794.90387248 647.24458496 795.85688382 C647.31818676 857.62262052 647.44494797 919.388271 647.58000183 981.15390015 C669.05878627 981.17723365 690.53756862 981.19488155 712.01636314 981.20571232 C721.98875222 981.21087431 731.96113343 981.21791519 741.93351746 981.2293396 C750.62280744 981.23928937 759.31209172 981.24575428 768.00138724 981.24798864 C772.60467014 981.24929525 777.20793675 981.25237796 781.81121445 981.2596302 C786.13999849 981.26639503 790.46875947 981.26851616 794.79754829 981.26700783 C796.3899161 981.26728395 797.98228465 981.26928634 799.5746479 981.27310562 C801.74161227 981.27805008 803.90848848 981.27689563 806.07545471 981.27415466 C807.29037786 981.27507646 808.50530102 981.27599825 809.75704002 981.27694798 C812.53110442 981.34828213 812.53110442 981.34828213 814.58000183 980.15390015 C814.58000183 698.66390015 814.58000183 417.17390015 814.58000183 127.15390015 C814.25000183 127.15390015 813.92000183 127.15390015 813.58000183 127.15390015 Z M184.58000183 128.15390015 C184.58000183 409.31390015 184.58000183 690.47390015 184.58000183 980.15390015 C187.43574549 981.58177198 189.85297894 981.27659253 193.04658508 981.27415466 C194.05370224 981.2754363 194.05370224 981.2754363 195.08116519 981.27674383 C197.34138358 981.27839703 199.60152851 981.27287987 201.86174011 981.26742554 C203.4777781 981.2671436 205.09381621 981.26730152 206.70985413 981.26786804 C211.10630084 981.26815578 215.50272046 981.26226283 219.89916086 981.25529408 C224.49027273 981.24905665 229.08138516 981.24845644 233.67250061 981.24726868 C242.37060159 981.24415652 251.06869005 981.23594467 259.7667855 981.22591919 C269.66748823 981.21475449 279.56819155 981.2092467 289.46889901 981.20422375 C309.83927361 981.19376197 330.20963694 981.17616474 350.58000183 981.15390015 C350.71710525 918.46805989 350.84430284 855.78220207 350.91874695 793.09625244 C350.9198514 792.16861597 350.92095586 791.2409795 350.92209379 790.28523284 C350.94603654 770.12563618 350.96819807 749.96603794 350.98852447 729.80643732 C350.99850324 719.92030479 351.00887566 710.03417268 351.01945496 700.14804077 C351.02050103 699.16424703 351.0215471 698.18045328 351.02262487 697.16684761 C351.05672123 665.27399233 351.1168158 633.38125037 351.1903796 601.48846375 C351.265833 568.71697002 351.31508366 535.94553902 351.33132175 503.17395989 C351.33362702 498.54617813 351.33623212 493.91839658 351.33901978 489.29061508 C351.33955916 488.37979315 351.34009854 487.46897121 351.34065427 486.53054861 C351.3501114 471.8633851 351.38722481 457.19641542 351.4346581 442.52933099 C351.48174474 427.78718791 351.49974859 413.04523716 351.48801285 398.30302151 C351.48192393 389.5421275 351.49818642 380.78193696 351.54638218 372.02116987 C351.57638133 366.16868182 351.57731207 360.31665441 351.55465634 354.46413456 C351.54257634 351.1289512 351.54751104 347.796178 351.57906729 344.4609616 C351.61111854 340.86488018 351.59391189 337.27225284 351.56438446 333.67622566 C351.58540057 332.64523215 351.60641668 331.61423864 351.62806964 330.55200291 C351.49296315 323.28432693 349.21025586 319.41148227 344.49070713 313.93631839 C342.77176035 311.92652255 342.77176035 311.92652255 340.58000183 312.15390015 C340.33250183 311.37015015 340.08500183 310.58640015 339.83000183 309.77890015 C338.8531885 307.03413062 338.8531885 307.03413062 336.58000183 306.15390015 C333.77250928 304.75015387 333.73755466 303.04778222 332.58000183 300.15390015 C330.75074953 297.66322329 328.83039634 295.2758754 326.58000183 293.15390015 C325.92000183 293.15390015 325.26000183 293.15390015 324.58000183 293.15390015 C324.58000183 292.49390015 324.58000183 291.83390015 324.58000183 291.15390015 C322.64254226 289.07805061 320.58661193 287.16010963 318.51750183 285.21640015 C316.58000183 283.15390015 316.58000183 283.15390015 315.14250183 280.71640015 C312.83330438 276.92931632 309.66626424 274.17626476 306.45500183 271.15390015 C304.58000183 269.15390015 304.58000183 269.15390015 302.95500183 266.40390015 C302.27437683 265.29015015 302.27437683 265.29015015 301.58000183 264.15390015 C300.92000183 264.15390015 300.26000183 264.15390015 299.58000183 264.15390015 C299.31187683 263.34952515 299.04375183 262.54515015 298.76750183 261.71640015 C298.37562683 260.87077515 297.98375183 260.02515015 297.58000183 259.15390015 C296.59000183 258.82390015 295.60000183 258.49390015 294.58000183 258.15390015 C294.58000183 257.49390015 294.58000183 256.83390015 294.58000183 256.15390015 C293.92000183 256.15390015 293.26000183 256.15390015 292.58000183 256.15390015 C292.31187683 255.41140015 292.04375183 254.66890015 291.76750183 253.90390015 C290.62723433 251.26328066 289.48619877 249.29837171 287.58000183 247.15390015 C286.92000183 247.15390015 286.26000183 247.15390015 285.58000183 247.15390015 C285.25000183 246.16390015 284.92000183 245.17390015 284.58000183 244.15390015 C283.92000183 244.15390015 283.26000183 244.15390015 282.58000183 244.15390015 C282.25000183 242.83390015 281.92000183 241.51390015 281.58000183 240.15390015 C280.92000183 240.15390015 280.26000183 240.15390015 279.58000183 240.15390015 C279.58000183 239.49390015 279.58000183 238.83390015 279.58000183 238.15390015 C278.75500183 237.67952515 277.93000183 237.20515015 277.08000183 236.71640015 C276.25500183 236.20077515 275.43000183 235.68515015 274.58000183 235.15390015 C274.58000183 234.16390015 274.58000183 233.17390015 274.58000183 232.15390015 C273.00699142 230.29488784 271.76380266 229.24580056 269.58000183 228.15390015 C269.14687683 227.41140015 268.71375183 226.66890015 268.26750183 225.90390015 C266.67516984 223.06957587 266.67516984 223.06957587 264.26750183 220.84140015 C261.48513286 218.05903117 259.33574635 215.15183472 257.10734558 211.9234314 C255.41899828 209.96736663 253.88276321 209.25710591 251.58000183 208.15390015 C251.17781433 207.10202515 251.17781433 207.10202515 250.76750183 206.02890015 C248.98723333 201.7187764 245.94885294 198.35589778 242.58000183 195.15390015 C241.92000183 195.15390015 241.26000183 195.15390015 240.58000183 195.15390015 C240.52586121 194.61765015 240.47172058 194.08140015 240.41593933 193.52890015 C239.18868398 190.04211858 236.72515763 187.76452308 234.20500183 185.15390015 C228.83358991 179.50272719 228.83358991 179.50272719 226.85343933 176.77890015 C226.43320496 176.24265015 226.01297058 175.70640015 225.58000183 175.15390015 C224.92000183 175.15390015 224.26000183 175.15390015 223.58000183 175.15390015 C223.08500183 173.17390015 223.08500183 173.17390015 222.58000183 171.15390015 C221.92000183 171.15390015 221.26000183 171.15390015 220.58000183 171.15390015 C220.33250183 170.59702515 220.08500183 170.04015015 219.83000183 169.46640015 C218.35075365 166.72979101 216.64532744 164.47739145 214.58000183 162.15390015 C213.92000183 162.15390015 213.26000183 162.15390015 212.58000183 162.15390015 C212.35312683 161.43202515 212.12625183 160.71015015 211.89250183 159.96640015 C210.3094296 156.57410251 208.25670184 154.76976607 205.58000183 152.15390015 C204.5796749 150.87855072 203.60167116 149.58548514 202.64250183 148.27890015 C200.60492894 145.50948583 198.52932813 142.79737263 196.33000183 140.15390015 C195.85047058 139.57640015 195.37093933 138.99890015 194.87687683 138.40390015 C193.64020507 136.92257514 193.64020507 136.92257514 191.58000183 137.15390015 C191.31187683 136.34952515 191.04375183 135.54515015 190.76750183 134.71640015 C190.37562683 133.87077515 189.98375183 133.02515015 189.58000183 132.15390015 C188.59000183 131.82390015 187.60000183 131.49390015 186.58000183 131.15390015 C186.25000183 130.16390015 185.92000183 129.17390015 185.58000183 128.15390015 C185.25000183 128.15390015 184.92000183 128.15390015 184.58000183 128.15390015 Z " fill="#010101" transform="translate(524.4199981689453,435.8460998535156)"/>
<path d="M0 0 C0.66 0 1.32 0 2 0 C2 248.49 2 496.98 2 753 C94.07 752.67 186.14 752.34 281 752 C272.06584225 735.91851605 263.13401207 719.89269579 253.84179688 704.0234375 C253 702 253 702 254 699 C256.3399353 697.98712158 256.3399353 697.98712158 259.48193359 697.08300781 C261.23913223 696.56797699 261.23913223 696.56797699 263.03182983 696.0425415 C264.32055206 695.67888134 265.60942514 695.3157554 266.8984375 694.953125 C268.21285969 694.57471844 269.52703543 694.19545486 270.8409729 693.81536865 C273.59784133 693.02084269 276.35700427 692.23504452 279.11816406 691.45556641 C282.65887825 690.45553754 286.19389651 689.43689722 289.72748375 688.41200638 C292.44163479 687.62651945 295.15817874 686.84960235 297.87556839 686.07540131 C299.1799932 685.70292752 300.48374916 685.32810314 301.78681564 684.95090485 C303.60854265 684.42525635 305.43384267 683.91203859 307.25927734 683.39941406 C308.29772797 683.10423889 309.33617859 682.80906372 310.40609741 682.50494385 C313 682 313 682 316 683 C317.47949219 685.52734375 317.47949219 685.52734375 319.046875 688.9375 C319.33514664 689.55739807 319.62341827 690.17729614 319.92042542 690.815979 C320.87371553 692.87282235 321.81185688 694.93620931 322.75 697 C323.4095627 698.43105045 324.06997521 699.8617095 324.73120117 701.29199219 C326.83578492 705.85453172 328.91865034 710.42682652 331 715 C331.71227539 716.56190686 332.42467757 718.12375591 333.13720703 719.68554688 C335.84901865 725.63214844 338.55865674 731.57969947 341.25097656 737.53515625 C341.55527084 738.20794617 341.85956512 738.88073608 342.17308044 739.57391357 C342.99417477 741.39039617 343.81414565 743.20738647 344.6340332 745.02441406 C345.71113333 747.37074049 346.84540982 749.69081964 348 752 C440.73 752.33 533.46 752.66 629 753 C629 797.55 629 842.1 629 888 C609.2 888 589.4 888 569 888 C569 860.94 569 833.88 569 806 C397.4 806 225.8 806 49 806 C49 833.06 49 860.12 49 888 C33.49 888 17.98 888 2 888 C2 1019.34 2 1150.68 2 1286 C32.69 1286 63.38 1286 95 1286 C95 1147.73 95 1009.46 95 867 C237.23 867 379.46 867 526 867 C526 1005.27 526 1143.54 526 1286 C567.58 1286 609.16 1286 652 1286 C652 1304.48 652 1322.96 652 1342 C437.5 1342 223 1342 2 1342 C2 1574.98 2 1807.96 2 2048 C1.67 2048 1.34 2048 1 2048 C1 1815.02 1 1582.04 1 1342 C-8.57 1342 -18.14 1342 -28 1342 C-28 1323.52 -28 1305.04 -28 1286 C-18.43 1286 -8.86 1286 1 1286 C1 1154.66 1 1023.32 1 888 C-2.96 888 -6.92 888 -11 888 C-11 843.45 -11 798.9 -11 753 C-7.04 753 -3.08 753 1 753 C0.67 504.51 0.34 256.02 0 0 Z M154 923 C154 950.72 154 978.44 154 1007 C257.29 1007 360.58 1007 467 1007 C467 979.28 467 951.56 467 923 C363.71 923 260.42 923 154 923 Z M154 1061 C154 1089.71 154 1118.42 154 1148 C257.29 1148 360.58 1148 467 1148 C467 1119.29 467 1090.58 467 1061 C363.71 1061 260.42 1061 154 1061 Z M154 1202 C154 1229.72 154 1257.44 154 1286 C257.29 1286 360.58 1286 467 1286 C467 1258.28 467 1230.56 467 1202 C363.71 1202 260.42 1202 154 1202 Z " fill="#020202" transform="translate(2046,0)"/>
<path d="M0 0 C18.48 0 36.96 0 56 0 C56 17.49 56 34.98 56 53 C109.46 53 162.92 53 218 53 C218 85.67 218 118.34 218 152 C233.18 152 248.36 152 264 152 C264 169.82 264 187.64 264 206 C248.82 206 233.64 206 218 206 C218 239 218 272 218 306 C164.54 306 111.08 306 56 306 C56 322.17 56 338.34 56 355 C111.11 355 166.22 355 223 355 C223 371.5 223 388 223 405 C167.89 405 112.78 405 56 405 C56 422.16 56 439.32 56 457 C124.64 457 193.28 457 264 457 C264 475.81 264 494.62 264 514 C195.36 514 126.72 514 56 514 C56 534.13 56 554.26 56 575 C37.52 575 19.04 575 0 575 C0 554.87 0 534.74 0 514 C-64.02 514 -128.04 514 -194 514 C-194 495.19 -194 476.38 -194 457 C-129.98 457 -65.96 457 0 457 C0 439.84 0 422.68 0 405 C-52.14 405 -104.28 405 -158 405 C-158 388.5 -158 372 -158 355 C-105.86 355 -53.72 355 0 355 C0 338.83 0 322.66 0 306 C-43.56 306 -87.12 306 -132 306 C-132 289.17 -132 272.34 -132 255 C-88.44 255 -44.88 255 0 255 C0 238.83 0 222.66 0 206 C-61.05 206 -122.1 206 -185 206 C-185 188.18 -185 170.36 -185 152 C-123.95 152 -62.9 152 0 152 C0 136.16 0 120.32 0 104 C-42.57 104 -85.14 104 -129 104 C-129 87.17 -129 70.34 -129 53 C-86.43 53 -43.86 53 0 53 C0 35.51 0 18.02 0 0 Z M56 104 C56 119.84 56 135.68 56 152 C90.65 152 125.3 152 161 152 C161 136.16 161 120.32 161 104 C126.35 104 91.7 104 56 104 Z M56 206 C56 222.17 56 238.34 56 255 C90.65 255 125.3 255 161 255 C161 238.83 161 222.66 161 206 C126.35 206 91.7 206 56 206 Z " fill="#000000" transform="translate(3925,688)"/>
<path d="M0 0 C201.3 0 402.6 0 610 0 C610 215.16 610 430.32 610 652 C591.52 652 573.04 652 554 652 C554 643.42 554 634.84 554 626 C389.66 626 225.32 626 56 626 C56 634.58 56 643.16 56 652 C37.52 652 19.04 652 0 652 C0 436.84 0 221.68 0 0 Z M56 54 C56 224.94 56 395.88 56 572 C220.34 572 384.68 572 554 572 C554 401.06 554 230.12 554 54 C389.66 54 225.32 54 56 54 Z " fill="#000000" transform="translate(2800,711)"/>
<path d="M0 0 C69.96 0 139.92 0 212 0 C212 65.64236991 212 65.64236991 195.59521484 83.97119141 C191.28423327 89.00242729 187.89375687 94.58866734 184.375 100.1875 C182.98084105 102.32961363 181.58242323 104.46896168 180.1796875 106.60546875 C179.49100586 107.65911621 178.80232422 108.71276367 178.09277344 109.79833984 C174.56243661 115.19927746 171.03116739 120.59960539 167.5 126 C166.08332895 128.1666638 164.66666228 130.33333047 163.25 132.5 C154.75 145.5 154.75 145.5 152.62353516 148.75219727 C151.21169864 150.91150528 149.7999145 153.07084754 148.38818359 155.23022461 C145.14637135 160.18875271 141.90414288 165.14700627 138.65985107 170.10391235 C137.53937382 171.81593057 136.41907576 173.52806591 135.29882812 175.24023438 C133.91506246 177.35504605 132.53098248 179.46965213 131.14648438 181.58398438 C125.39903282 190.36912805 119.70342364 199.18561801 114 208 C148.32 208 182.64 208 218 208 C218 223.01637871 218 223.01637871 217.51953125 229.47265625 C217.4667955 230.22166199 217.41405975 230.97066772 217.35972595 231.74237061 C217.1843978 234.18299852 216.99988141 236.6227691 216.8125 239.0625 C216.74720093 239.92048187 216.68190186 240.77846375 216.61462402 241.66244507 C210.6164089 319.5118286 199.39116753 403.41324249 163.5625 473.83203125 C162.70567627 475.5339563 162.70567627 475.5339563 161.83154297 477.27026367 C160.71637891 479.46246243 159.5756859 481.64191011 158.40673828 483.8059082 C157.01271954 486.53476354 155.79937798 489.04191529 155 492 C156.10321883 495.53797849 156.10321883 495.53797849 159 498 C159.91652344 498.89460938 160.83304688 499.78921875 161.77734375 500.7109375 C162.82145056 501.60984951 163.87531236 502.49752678 164.9375 503.375 C165.50815186 503.84977783 166.07880371 504.32455566 166.66674805 504.8137207 C230.0682134 556.43130355 334.87338934 558.2688141 412.84960938 561.06005859 C414.05145654 561.10338027 415.2533037 561.14670194 416.49157047 561.19133639 C442.83587773 562.12226657 469.16704007 562.34633315 495.52560997 562.40471697 C501.87814122 562.42079212 508.23062997 562.44742947 514.58312988 562.4727478 C525.17064059 562.5136101 535.75815553 562.54840795 546.34570312 562.578125 C557.21551221 562.60865205 568.08529768 562.64314804 578.95507812 562.68261719 C579.63334858 562.68507874 580.31161904 562.68754028 581.01044315 562.69007643 C584.41559238 562.70245752 587.82074133 562.71491279 591.22589016 562.72740483 C619.15056015 562.82975385 647.07525992 562.91920341 675 563 C673.02345072 570.6702288 670.66272504 578.12082169 667.98828125 585.57421875 C667.61519333 586.62406448 667.24210541 587.67391022 666.85771179 588.75556946 C665.67974669 592.06757071 664.49622606 595.37755396 663.3125 598.6875 C662.50679137 600.94973802 661.70144939 603.21210665 660.89648438 605.47460938 C658.93522226 610.98458883 656.96941041 616.49292806 655 622 C624.23155864 622.04592395 593.46312534 622.08117161 562.69465775 622.10213066 C559.03724248 622.10463117 555.37982728 622.1072199 551.72241211 622.10986328 C550.99448499 622.1103879 550.26655787 622.11091252 549.51657235 622.11145304 C537.83014712 622.1200844 526.14374218 622.1358128 514.45732886 622.15430559 C502.40780992 622.17320964 490.35830137 622.18415926 478.30876821 622.18817699 C471.56526635 622.19064172 464.82181272 622.19667465 458.07832527 622.21146011 C420.15235638 622.29135979 382.35183011 621.76188487 344.5625 618.25 C343.20200531 618.12644638 343.20200531 618.12644638 341.81402588 618.00039673 C283.46371195 612.6491037 223.05281875 603.0079957 170 577 C169.19481934 576.60699707 168.38963867 576.21399414 167.56005859 575.80908203 C151.77819653 568.02018214 137.69980209 558.72663464 124.4765625 547.1171875 C122.20242988 545.00068417 122.20242988 545.00068417 120 544 C119.75121094 544.54785156 119.50242187 545.09570312 119.24609375 545.66015625 C113.91311183 555.67412544 105.38512721 564.45531776 98 573 C97.0409375 574.11181641 97.0409375 574.11181641 96.0625 575.24609375 C94.38635173 577.17444025 92.69471361 579.08795182 91 581 C90.36408936 581.72074707 89.72817871 582.44149414 89.07299805 583.18408203 C83.39593941 589.56269694 77.48780772 595.66347892 71.4375 601.6875 C70.54353516 602.58533203 69.64957031 603.48316406 68.72851562 604.40820312 C63.64741439 609.48187042 58.46823274 614.34785684 53 619 C51.8118321 620.03178345 50.62431586 621.06431789 49.4375 622.09765625 C32.19714846 637 32.19714846 637 29 637 C27.43195277 634.86426443 25.98716136 632.72933121 24.5625 630.5 C23.65870652 629.11382994 22.75371841 627.72843821 21.84765625 626.34375 C21.37859863 625.62445312 20.90954102 624.90515625 20.42626953 624.1640625 C18.1695418 620.73995524 15.83422459 617.37151926 13.5 614 C12.58818326 612.67212104 11.67672578 611.34399531 10.765625 610.015625 C8.87630311 607.26384518 6.96631908 604.52770892 5.046875 601.796875 C4.11409861 600.4482518 3.18178942 599.09930531 2.25 597.75 C1.80720703 597.12996094 1.36441406 596.50992188 0.90820312 595.87109375 C-1.98508465 591.64136025 -1.98508465 591.64136025 -2.05078125 588.81640625 C-0.58217799 586.27774262 1.22046287 584.95711673 3.5625 583.1875 C15.12031775 574.03015209 25.53606632 563.55589962 35.99423218 553.18099976 C37.39297263 551.79414888 38.79566661 550.41128896 40.19848633 549.02856445 C45.43288591 543.80085909 50.24977881 538.40732968 54.8671875 532.62841797 C56.86527114 530.16603605 58.93525183 527.80821337 61.06640625 525.4609375 C65.31674931 520.72896618 69.14136 515.7245194 72.9375 510.625 C73.60845703 509.73683594 74.27941406 508.84867188 74.97070312 507.93359375 C75.60814453 507.08152344 76.24558594 506.22945312 76.90234375 505.3515625 C77.47460693 504.58666504 78.04687012 503.82176758 78.63647461 503.03369141 C80.16445703 500.9493808 80.16445703 500.9493808 81 498 C79.45650343 495.4698762 77.87087435 493.13438167 76.125 490.75 C75.09183476 489.29003188 74.06194103 487.82774372 73.03515625 486.36328125 C72.51840332 485.62674316 72.00165039 484.89020508 71.46923828 484.13134766 C62.76135995 471.49928089 55.90533107 457.6652089 49 444 C48.42934814 442.87489014 48.42934814 442.87489014 47.84716797 441.72705078 C34.6353415 415.43383902 25.23274676 386.67248814 17.3125 358.375 C17.05629883 357.47491211 16.80009766 356.57482422 16.53613281 355.64746094 C16.3140918 354.8227832 16.09205078 353.99810547 15.86328125 353.1484375 C15.57384644 352.08375244 15.57384644 352.08375244 15.27856445 350.99755859 C14.94417942 348.59971602 15.11859972 347.26014623 16 345 C17.8396759 343.80439758 17.8396759 343.80439758 20.27270508 342.81762695 C21.18067337 342.44076248 22.08864166 342.06389801 23.02412415 341.6756134 C24.50685066 341.08788399 24.50685066 341.08788399 26.01953125 340.48828125 C27.02964767 340.07458786 28.0397641 339.66089447 29.08049011 339.23466492 C32.3188456 337.91286709 35.5654955 336.61288559 38.8125 335.3125 C40.99078211 334.42517156 43.16852405 333.53651583 45.34570312 332.64648438 C49.34041589 331.02133149 53.33558143 329.39751314 57.33911133 327.79418945 C58.14439774 327.47094193 58.94968414 327.1476944 59.77937317 326.81465149 C61.83912156 326.05901931 63.86227009 325.48525158 66 325 C66.30591064 325.97420898 66.61182129 326.94841797 66.92700195 327.95214844 C78.30425901 364.07431141 90.99320185 399.67264228 110.07421875 432.55859375 C111.63593375 435.34940697 112.91892396 437.9995804 114 441 C114.66 441 115.32 441 116 441 C116.12963135 440.2663623 116.2592627 439.53272461 116.39282227 438.77685547 C116.95627116 436.19998867 117.70349656 433.99913218 118.71484375 431.5703125 C133.73769878 394.77155679 143.49565789 356.40957375 151.3125 317.5 C151.4596344 316.77217316 151.6067688 316.04434631 151.75836182 315.29446411 C155.30191779 297.61217517 158.03557717 279.78653698 161 262 C122.39 262 83.78 262 44 262 C38 211 38 211 52 191 C56.01497098 185.16434291 56.01497098 185.16434291 60.0234375 179.32421875 C63.65824354 174.03277512 67.33077762 168.76760651 71 163.5 C75.51852456 157.01257701 80.02976343 150.5208038 84.5 144 C89.66198464 136.4701325 94.87995897 128.97961198 100.09765625 121.48828125 C103.91571542 116.00389644 107.72149492 110.51170463 111.5 105 C116.65769772 97.477121 121.86659161 89.9901552 127.08007812 82.50585938 C132.06691486 75.34643927 137.03356494 68.17373952 142 61 C95.14 60.67 48.28 60.34 0 60 C0 40.2 0 20.4 0 0 Z " fill="#000000" transform="translate(3526,726)"/>
<path d="M0 0 C104.61 0 209.22 0 317 0 C317 8.53633421 316.55977786 16.09002047 315.375 24.4375 C315.19751221 25.69594727 315.02002441 26.95439453 314.8371582 28.25097656 C303.93722296 102.44637795 272.8026057 172.96417728 219 226 C224.4068478 230.97763011 229.99817272 235.23325913 236.1875 239.1875 C237.48844604 240.0237793 237.48844604 240.0237793 238.81567383 240.87695312 C273.34557748 262.85589027 310.40211883 279.67933029 348.41699219 294.58935547 C354.6221805 297.03236297 360.81057145 299.51739123 367 302 C365.73663701 306.07125173 364.22710863 309.71806631 362.19921875 313.46484375 C361.64016846 314.50165283 361.08111816 315.53846191 360.50512695 316.60668945 C359.90531006 317.70585693 359.30549316 318.80502441 358.6875 319.9375 C358.07028076 321.07598389 357.45306152 322.21446777 356.81713867 323.38745117 C349.76245497 336.37276712 342.63503617 349.34569915 335 362 C327.88344286 360.03981374 321.18373001 357.54804038 314.4375 354.5625 C313.45080322 354.12856934 312.46410645 353.69463867 311.44750977 353.24755859 C269.62165751 334.69850211 230.07206838 311.82910092 193 285 C191.09876519 283.63377392 189.19584765 282.26994511 187.29174805 280.90771484 C185.64022361 279.72538627 183.99183854 278.53867578 182.34375 277.3515625 C178.29551475 274.46972503 174.14545366 271.7392097 170 269 C168.99066406 269.69222656 167.98132812 270.38445312 166.94140625 271.09765625 C148.27417546 283.78168736 128.85308253 295.27643718 109 306 C107.93265625 306.58394531 107.93265625 306.58394531 106.84375 307.1796875 C71.10311814 326.70938991 33.06907573 341.64632786 -5.41992188 354.77539062 C-8.6241148 355.87142389 -11.82091443 356.98608061 -15.015625 358.109375 C-16.65592086 358.67803362 -18.29651134 359.24584369 -19.9375 359.8125 C-20.64092529 360.06136963 -21.34435059 360.31023926 -22.0690918 360.56665039 C-26.65386737 362.11537754 -26.65386737 362.11537754 -30 361 C-31.34350586 358.94067383 -31.34350586 358.94067383 -32.71484375 356.20703125 C-33.23062988 355.19423096 -33.74641602 354.18143066 -34.27783203 353.13793945 C-34.82552246 352.04054443 -35.37321289 350.94314941 -35.9375 349.8125 C-37.09829103 347.53024727 -38.26109484 345.24901729 -39.42578125 342.96875 C-40.01697754 341.80859375 -40.60817383 340.6484375 -41.21728516 339.453125 C-44.40985151 333.2691126 -47.77056775 327.1784195 -51.12866211 321.08325195 C-58 308.5930461 -58 308.5930461 -58 305 C-56.79730469 304.6596875 -55.59460937 304.319375 -54.35546875 303.96875 C-49.63824429 302.63038344 -44.92465275 301.27959754 -40.21240234 299.92382812 C-38.08300712 299.31145303 -35.95312855 298.70075597 -33.82275391 298.09179688 C3.12237947 287.50232003 38.61384274 274.21357796 73 257 C73.89058105 256.55865723 74.78116211 256.11731445 75.69873047 255.66259766 C92.18307103 247.45589415 109.37972047 238.29349651 124 227 C122.73582209 224.27091074 121.39918202 222.11778711 119.3828125 219.890625 C118.86468994 219.30974121 118.34656738 218.72885742 117.81274414 218.13037109 C117.25578857 217.50984863 116.69883301 216.88932617 116.125 216.25 C76.8413131 171.57699886 52.0683064 117.30435462 34.0246582 61.18505859 C33.36029867 59.11995627 32.68600446 57.05801338 32 55 C21.44 54.67 10.88 54.34 0 54 C0 36.18 0 18.36 0 0 Z M92 54 C97.88973126 70.95652234 97.88973126 70.95652234 104.75 87.4375 C105.26312744 88.57654785 105.77625488 89.7155957 106.30493164 90.88916016 C120.3087812 121.63267506 137.65561903 150.40425665 161 175 C162.29918021 176.47257176 163.59145019 177.95128444 164.875 179.4375 C167.15650334 182.06419533 169.48797019 184.58845138 172 187 C176.0575021 185.41144965 178.63256577 182.53006918 181.5 179.375 C182.02263428 178.80233398 182.54526855 178.22966797 183.08374023 177.63964844 C210.22050927 147.37124508 243 96.14617962 243 54 C193.17 54 143.34 54 92 54 Z " fill="#000000" transform="translate(4581,1004)"/>
<path d="M0 0 C120.12 0 240.24 0 364 0 C364 42.9 364 85.8 364 130 C342.91609375 129.98646484 342.91609375 129.98646484 321.40625 129.97265625 C312.51038822 129.98249208 303.61458682 129.99409036 294.71875 130.01367188 C280.5936755 130.04443514 266.46885267 130.06792886 252.34375 130.04467773 C242.05675357 130.02777758 231.77011626 130.03537884 221.48316717 130.07234758 C216.03665525 130.09106678 210.59075064 130.09755326 205.14424133 130.07469368 C200.01560603 130.0535555 194.88808245 130.06522693 189.75954437 130.10184479 C187.87944794 130.10952561 185.99925864 130.1053152 184.11922455 130.08818626 C172.80321628 129.61784265 172.80321628 129.61784265 162.98669434 134.40501404 C161.95678079 135.57395325 160.95580614 136.76972547 160 138 C158.6696875 139.19109375 158.6696875 139.19109375 157.3125 140.40625 C156.549375 141.0971875 155.78625 141.788125 155 142.5 C150.10215468 146.93453563 150.10215468 146.93453563 148.02270508 148.26712132 C144.47374922 150.76178592 142.33193872 152.67441255 141.2565918 156.96877861 C140.97454131 160.72341013 140.9435322 164.43646004 141 168.19702148 C140.99238616 169.63648149 140.98126076 171.07592654 140.96690369 172.51533508 C140.93796736 176.40792015 140.95795034 180.29887811 140.9869194 184.19140506 C141.00884885 188.26474614 140.98551314 192.33782595 140.96704102 196.41114807 C140.9389386 204.11764314 140.95136657 211.82351505 140.97846508 219.52999216 C141.00734423 228.30637544 140.99087503 237.08249192 140.97065353 245.85887802 C140.93008409 263.90618771 140.95226369 281.95269293 141 300 C123.51 300 106.02 300 88 300 C88 265.68 88 231.36 88 196 C82.39 199.63 76.78 203.26 71 207 C-2.4122449 253 -2.4122449 253 -24 253 C-31.17920169 239.64304059 -38.35631895 226.28424813 -45.4375 212.875 C-45.90325439 212.00012939 -46.36900879 211.12525879 -46.84887695 210.22387695 C-47.2687085 209.42554443 -47.68854004 208.62721191 -48.12109375 207.8046875 C-48.4864624 207.11358887 -48.85183105 206.42249023 -49.22827148 205.71044922 C-50 204 -50 204 -50 202 C-48.81132324 201.59442871 -48.81132324 201.59442871 -47.59863281 201.18066406 C-18.13508773 191.07137177 10.12935933 178.89890213 38 165 C39.32668701 164.33967773 39.32668701 164.33967773 40.68017578 163.66601562 C51.00587168 158.48544027 60.99339532 152.74668248 70.9375 146.875 C72.6083667 145.88910889 72.6083667 145.88910889 74.31298828 144.88330078 C75.39435059 144.2386084 76.47571289 143.59391602 77.58984375 142.9296875 C78.53722412 142.36491699 79.48460449 141.80014648 80.46069336 141.21826172 C85.71356066 137.92602524 90.84186286 134.43875809 96 131 C64.32 130.67 32.64 130.34 0 130 C0 87.1 0 44.2 0 0 Z M57 51 C57 60.24 57 69.48 57 79 C139.5 79 222 79 307 79 C307 69.76 307 60.52 307 51 C224.5 51 142 51 57 51 Z " fill="#000000" transform="translate(2923,966)"/>
<path d="M0 0 C19.8 0 39.6 0 60 0 C60 9.57 60 19.14 60 29 C113.13 29 166.26 29 221 29 C221 45.83 221 62.66 221 80 C167.87 80 114.74 80 60 80 C60 91.22 60 102.44 60 114 C123.69 114 187.38 114 253 114 C253 130.83 253 147.66 253 165 C106.81 165 -39.38 165 -190 165 C-190 148.17 -190 131.34 -190 114 C-127.3 114 -64.6 114 0 114 C0 102.78 0 91.56 0 80 C-53.13 80 -106.26 80 -161 80 C-161 63.17 -161 46.34 -161 29 C-107.87 29 -54.74 29 0 29 C0 19.43 0 9.86 0 0 Z " fill="#000000" transform="translate(3075,779)"/>
<path d="M0 0 C28.6671653 -0.02332528 57.33432918 -0.04097735 86.00150204 -0.05181217 C99.3111454 -0.05697592 112.62078062 -0.06402011 125.93041992 -0.07543945 C137.52650044 -0.08538389 149.1225767 -0.09185285 160.71866137 -0.09408849 C166.86283525 -0.09539601 173.00699693 -0.09848444 179.15116692 -0.10573006 C184.9269741 -0.11248649 190.702764 -0.11461774 196.47857475 -0.11310768 C198.60511875 -0.11338418 200.73166329 -0.11539153 202.85820389 -0.11920547 C205.74805584 -0.12413683 208.63784141 -0.12300036 211.5276947 -0.12025452 C212.38079049 -0.12316736 213.23388627 -0.1260802 214.11283344 -0.12908131 C219.88587879 -0.11412121 219.88587879 -0.11412121 221 1 C221.1011874 3.39116526 221.13713927 5.75368756 221.13130188 8.14547729 C221.13447545 9.28055353 221.13447545 9.28055353 221.13771313 10.43856061 C221.14374171 12.99404813 221.14271093 15.54948666 221.1418457 18.10498047 C221.14487549 19.92962224 221.14839644 21.75426325 221.15237427 23.5789032 C221.16028052 27.51965291 221.16541479 31.4603935 221.16866493 35.40114975 C221.17456585 41.63799571 221.19109975 47.87478431 221.21000671 54.11160278 C221.21634484 56.24590107 221.22267045 58.3801994 221.22898388 60.51449776 C221.23214969 61.58370468 221.2353155 62.65291161 221.23857725 63.75451875 C221.28065477 78.27969481 221.31360215 92.80484523 221.32592773 107.33007812 C221.33431973 117.11896731 221.35685764 126.90771558 221.3952834 136.69653428 C221.41501531 141.87637872 221.42745836 147.05601265 221.42244911 152.23589706 C221.41778744 157.11643703 221.43169097 161.99657913 221.45946121 166.87703896 C221.46634903 168.66234468 221.46652566 170.44769176 221.45926094 172.23299599 C221.41921978 183.18502293 221.89094995 192.42551992 227.875 202 C235.5902317 209.26139454 246.46167376 208.16821892 256.375 208.31640625 C257.5400708 208.33718735 258.7051416 208.35796844 259.90551758 208.37937927 C263.60362211 208.44442622 267.30179376 208.50355006 271 208.5625 C273.51693384 208.60572793 276.03386106 208.64934354 278.55078125 208.69335938 C284.70045325 208.80078608 290.85018079 208.90019285 297 209 C297 225.5 297 242 297 259 C276.38852854 259.12032643 276.38852854 259.12032643 267.51757812 259.14648438 C261.49414008 259.16433079 255.47084047 259.18530897 249.44750977 259.22631836 C244.58453428 259.25921561 239.72170751 259.2769162 234.85862923 259.28463173 C233.01493048 259.29012129 231.1712387 259.30083879 229.32760429 259.31719017 C208.62348096 259.49330385 189.70472128 257.04024994 174.06640625 242.16015625 C161.99009125 229.46054757 160.52639191 211.9915436 160.65942383 195.27392578 C160.66027253 193.75463884 160.65979022 192.23535068 160.65809631 190.71606445 C160.65724442 186.63840004 160.67473765 182.5610067 160.69581819 178.48340464 C160.71472121 174.2046796 160.71634606 169.92594663 160.71989441 165.64718628 C160.72917521 157.56566961 160.7537346 149.48427639 160.78394288 141.40281379 C160.82392103 130.46756402 160.83997385 119.53227988 160.85744953 108.59697533 C160.88555912 91.39789129 160.94535481 74.19906763 161 57 C125.69 57.33 90.38 57.66 54 58 C53.34 72.19 52.68 86.38 52 101 C51.471102 108.29140175 50.93131116 115.54603713 50.1875 122.8125 C50.10385193 123.65915222 50.02020386 124.50580444 49.934021 125.37811279 C43.77974091 187.30850603 25.95321267 238.40792779 -22 280 C-25.81488941 278.48601922 -27.63076629 276.27002932 -30.125 273.0625 C-33.29541471 269.07609331 -36.54377896 265.2415477 -40 261.5 C-44.12150398 257.02121394 -47.99429637 252.39521217 -51.81640625 247.66015625 C-55.09340113 243.6679675 -58.53235604 239.82669157 -62 236 C-59.24989866 232.72960921 -56.49275783 229.51544033 -53.5390625 226.42578125 C-37.15909537 209.22446906 -26.41837568 189.44058643 -19 167 C-18.73445313 166.20948242 -18.46890625 165.41896484 -18.1953125 164.60449219 C-3.22096948 119.18108287 -2.60990023 67.62431969 -1.29052734 20.21459961 C-1.15332775 15.34653902 -0.90400329 10.51617868 -0.48681641 5.66308594 C-0.39590729 4.59797791 -0.30499817 3.53286987 -0.21133423 2.43548584 C-0.14159393 1.63177551 -0.07185364 0.82806519 0 0 Z " fill="#000000" transform="translate(4634,711)"/>
<path d="M0 0 C67.98 0 135.96 0 206 0 C206 83.49 206 166.98 206 253 C187.19 253 168.38 253 149 253 C149 240.46 149 227.92 149 215 C118.64 215 88.28 215 57 215 C57 227.54 57 240.08 57 253 C38.19 253 19.38 253 0 253 C0 169.51 0 86.02 0 0 Z M57 54 C57 88.32 57 122.64 57 158 C87.36 158 117.72 158 149 158 C149 123.68 149 89.36 149 54 C118.64 54 88.28 54 57 54 Z " fill="#000000" transform="translate(4294,1110)"/>
<path d="M0 0 C0.39011009 1.13607697 0.39011009 1.13607697 0.7881012 2.29510498 C3.27236381 9.52942062 5.75720289 16.7635379 8.24264622 23.99744797 C9.51957126 27.71401468 10.79629429 31.4306505 12.07250977 35.14746094 C13.31044321 38.75275326 14.54896709 42.35784231 15.78785515 45.9628067 C16.2539654 47.31942161 16.71988347 48.67610257 17.1855793 50.0328598 C21.07779605 61.37172559 25.03952655 72.68436156 29 84 C78.5 84.495 78.5 84.495 129 85 C129 103.81 129 122.62 129 142 C45.51 142 -37.98 142 -124 142 C-124 123.19 -124 104.38 -124 85 C-95.29 85 -66.58 85 -37 85 C-39.97 77.08 -42.94 69.16 -46 61 C-48.22585593 55.04158884 -50.45112201 49.08340441 -52.66040039 43.11889648 C-53.27601188 41.45966109 -53.89361147 39.8011623 -54.51293945 38.14331055 C-55.4312019 35.68446283 -56.34323348 33.2233858 -57.25390625 30.76171875 C-57.53190567 30.0212883 -57.80990509 29.28085785 -58.09632874 28.51799011 C-59.19158802 25.54010096 -60 23.2000574 -60 20 C-52.47353005 17.38870505 -44.9459264 14.78071603 -37.41684151 12.17697144 C-33.92104346 10.96792067 -30.42565112 9.7577233 -26.93115234 8.54492188 C-23.56046525 7.37513745 -20.18875683 6.20834371 -16.81631088 5.04364014 C-15.52810502 4.5981543 -14.24027455 4.15158143 -12.95282364 3.70391846 C-11.15329484 3.07840493 -9.35231565 2.45706869 -7.55126953 1.8359375 C-6.52534698 1.48063965 -5.49942444 1.1253418 -4.44241333 0.75927734 C-2 0 -2 0 0 0 Z " fill="#000000" transform="translate(4392,688)"/>
<path d="M0 0 C3.43199991 1.14399997 3.798039 1.77337217 5.71484375 4.69140625 C6.23062988 5.46395752 6.74641602 6.23650879 7.27783203 7.0324707 C7.82552246 7.86738037 8.37321289 8.70229004 8.9375 9.5625 C13.7776459 16.81036804 18.77852309 23.86560219 24.12866211 30.74633789 C26.89156775 34.34237174 29.10466621 37.84680213 31 42 C23.97423243 46.86659623 16.67466604 51.14961965 9.25 55.375 C0.40355725 60.43507058 -8.390426 65.54494603 -17 71 C-10.52338632 77.54527036 -3.72353932 83.64924933 3.4375 89.4375 C8.211403 93.29825137 12.73388428 97.37437075 17.25 101.53125 C19.93737634 103.94378104 22.68965444 106.2325621 25.5 108.5 C32.6784404 114.29836721 39.47589675 120.47589675 46 127 C32.47 140.53 18.94 154.06 5 168 C0.91243997 165.95621999 -1.35083461 163.67397987 -4.296875 160.3359375 C-10.74235527 153.19749339 -17.47243393 146.37508209 -24.28320312 139.58642578 C-26.26550244 137.6095399 -28.24232633 135.62728961 -30.21875 133.64453125 C-38.54586813 125.30856029 -38.54586813 125.30856029 -47.31298828 117.44189453 C-50.24097073 114.93933818 -53.01138526 112.26753054 -55.8125 109.625 C-60.85431643 104.90252568 -66.02364567 100.4334785 -71.41796875 96.11328125 C-74.04421768 93.96380974 -76.55633453 91.72539912 -79.0625 89.4375 C-82.99517133 85.86234425 -87.03235465 82.49108734 -91.20703125 79.203125 C-93.23737335 77.60156843 -95.2540487 75.98882216 -97.26171875 74.359375 C-104.43959672 68.54635364 -111.72607739 62.9043473 -119.125 57.375 C-119.9720752 56.74102295 -120.81915039 56.1070459 -121.69189453 55.45385742 C-125.50750873 52.60083711 -129.3292351 49.75682303 -133.1640625 46.9296875 C-134.3596584 46.03683771 -135.55499252 45.1436372 -136.75 44.25 C-137.77609375 43.49203125 -138.8021875 42.7340625 -139.859375 41.953125 C-140.56578125 41.30859375 -141.2721875 40.6640625 -142 40 C-142 39.01 -142 38.02 -142 37 C-140.64916992 35.68823242 -140.64916992 35.68823242 -138.73046875 34.35546875 C-137.65768677 33.59737915 -137.65768677 33.59737915 -136.56323242 32.82397461 C-135.77924072 32.28393799 -134.99524902 31.74390137 -134.1875 31.1875 C-132.54094302 30.02706779 -130.89513513 28.86557208 -129.25 27.703125 C-128.39019531 27.09919922 -127.53039063 26.49527344 -126.64453125 25.87304688 C-122.28382963 22.78448495 -117.98576195 19.6120993 -113.6875 16.4375 C-112.89432373 15.85444092 -112.10114746 15.27138184 -111.28393555 14.6706543 C-110.534104 14.11804932 -109.78427246 13.56544434 -109.01171875 12.99609375 C-108.31095215 12.48159668 -107.61018555 11.96709961 -106.88818359 11.43701172 C-105.27171675 10.20679142 -103.73009451 8.87928621 -102.20703125 7.53515625 C-100 6 -100 6 -98.10449219 6.23730469 C-95.75304711 7.08949894 -94.11891816 8.1647406 -92.12109375 9.66796875 C-91.37351807 10.22516602 -90.62594238 10.78236328 -89.85571289 11.35644531 C-88.65869751 12.26281738 -88.65869751 12.26281738 -87.4375 13.1875 C-85.73703265 14.45710289 -84.03651014 15.7266319 -82.3359375 16.99609375 C-81.4603418 17.65335449 -80.58474609 18.31061523 -79.68261719 18.98779297 C-75.32177145 22.25882415 -70.94384212 25.50650278 -66.5625 28.75 C-65.76448975 29.34578857 -64.96647949 29.94157715 -64.14428711 30.55541992 C-63.39671143 31.1094751 -62.64913574 31.66353027 -61.87890625 32.234375 C-61.2247876 32.72131836 -60.57066895 33.20826172 -59.89672852 33.70996094 C-57.99617172 35.00260376 -56.07753208 36.02226994 -54 37 C-42.17972752 28.96974262 -30.36022295 20.9383655 -18.5625 12.875 C-17.40657349 12.0874231 -17.40657349 12.0874231 -16.22729492 11.28393555 C-13.0263705 9.09808412 -9.83972649 6.90297446 -6.71484375 4.609375 C-5.81894531 3.95453125 -4.92304688 3.2996875 -4 2.625 C-3.278125 2.08101562 -2.55625 1.53703125 -1.8125 0.9765625 C-1.214375 0.65429688 -0.61625 0.33203125 0 0 Z " fill="#000000" transform="translate(3265,1101)"/>
<path d="M0 0 C66.99 0 133.98 0 203 0 C203 17.82 203 35.64 203 54 C136.01 54 69.02 54 0 54 C0 36.18 0 18.36 0 0 Z " fill="#000000" transform="translate(4291,887)"/>
<path d="M0 0 C66.99 0 133.98 0 203 0 C203 17.49 203 34.98 203 53 C136.01 53 69.02 53 0 53 C0 35.51 0 18.02 0 0 Z " fill="#000000" transform="translate(4291,999)"/>
<path d="M0 0 C673.86 0 1347.72 0 2042 0 C2042 0.33 2042 0.66 2042 1 C1368.14 1 694.28 1 0 1 C0 0.67 0 0.34 0 0 Z " fill="#E1E1E1" transform="translate(0,0)"/>
<path d="M0 0 C1.32 0.66 2.64 1.32 4 2 C3.51281703 2.40016372 3.02563406 2.80032744 2.52368797 3.21261733 C0.58158814 5.49082367 0.62380632 6.63289906 0.62099248 9.59812278 C0.61281718 10.54948659 0.60464189 11.50085041 0.59621885 12.48104343 C0.60249555 13.53042603 0.60877225 14.57980864 0.61523914 15.66099072 C0.61008924 16.77709051 0.60493933 17.8931903 0.59963337 19.04311129 C0.58590538 22.82183436 0.59372966 26.60021571 0.60127258 30.37895203 C0.59750506 33.09979394 0.58921656 35.8206178 0.58113068 38.54144984 C0.56590131 44.47698931 0.56184722 50.41245596 0.56500816 56.34801292 C0.56965828 65.174015 0.55720403 73.99993426 0.54117843 82.82592005 C0.51471146 97.67104684 0.5022153 112.51615496 0.49761391 127.36130333 C0.49301093 142.06507273 0.48223983 156.76881617 0.46318626 171.47257423 C0.46200614 172.38597054 0.46082601 173.29936685 0.45961012 174.24044184 C0.45358491 178.87890468 0.44744906 183.51736736 0.44127061 188.15583 C0.39767988 221.03104452 0.36798622 253.90625841 0.34643555 286.78149414 C0.32546444 318.72421196 0.29821699 350.66691431 0.26245117 382.60961914 C0.26135169 383.59380741 0.26025222 384.57799568 0.25911942 385.59200783 C0.24807132 395.47540965 0.23689539 405.35881133 0.2256258 415.2422129 C0.20267017 435.37679123 0.18056785 455.51137047 0.15898132 475.64595032 C0.1579877 476.57175565 0.15699409 477.49756098 0.15597036 478.45142102 C0.0896883 540.30093469 0.04329948 602.15046649 0 664 C-0.33 664 -0.66 664 -1 664 C-1.00071214 663.43026602 -1.00142429 662.86053204 -1.00215801 662.27353339 C-1.07969618 600.26912337 -1.15846057 538.26471495 -1.2436676 476.26031494 C-1.24493928 475.3346696 -1.24621096 474.40902427 -1.24752118 473.45532907 C-1.2751631 453.34038898 -1.3030261 433.22544921 -1.33111694 413.11050974 C-1.34489059 403.24668754 -1.35861536 393.38286527 -1.37231445 383.51904297 C-1.37367854 382.53745436 -1.37504262 381.55586574 -1.37644804 380.54453202 C-1.42066903 348.70680553 -1.46166058 316.86907587 -1.50098413 285.03134298 C-1.54139846 252.3242374 -1.58505744 219.61713772 -1.63282111 186.910042 C-1.63956004 182.29439054 -1.64626173 177.67873902 -1.65294075 173.06308746 C-1.65425648 172.15462729 -1.65557221 171.24616712 -1.6569278 170.31017785 C-1.6780437 155.66423907 -1.69572139 141.01829805 -1.71212531 126.37235333 C-1.72867463 111.66171363 -1.74881759 96.95108238 -1.77266841 82.24045268 C-1.78674243 73.49190512 -1.79802151 64.74336416 -1.80536438 55.9948083 C-1.81053412 50.15815906 -1.81928015 44.32152241 -1.83098774 38.48488264 C-1.83756405 35.15453089 -1.84199206 31.82421327 -1.84316199 28.4938527 C-1.84466124 24.9134777 -1.85219899 21.33316623 -1.8613348 17.7528038 C-1.86031213 16.7092569 -1.85928946 15.66571 -1.85823581 14.59054047 C-1.86191652 13.63979619 -1.86559723 12.68905192 -1.86938947 11.70949721 C-1.87048134 10.89028697 -1.8715732 10.07107674 -1.87269815 9.22704194 C-1.99830731 7.02961221 -2.3914757 5.11032052 -3 3 C-2.01 2.67 -1.02 2.34 0 2 C0 1.34 0 0.68 0 0 Z " fill="#1C1C1C" transform="translate(1172,753)"/>
<path d="M0 0 C0.78196507 -0.00467997 1.56393014 -0.00935994 2.36959112 -0.01418173 C4.99220212 -0.0261566 7.61429299 -0.01666498 10.23690796 -0.00723267 C12.11600551 -0.0112972 13.99510067 -0.01663841 15.87419128 -0.02316284 C20.97935726 -0.03685445 26.08434162 -0.03153066 31.18951082 -0.02202559 C36.52573932 -0.0144408 41.86195206 -0.0214711 47.19818115 -0.02618408 C56.1578959 -0.03164413 65.11753649 -0.02444248 74.07723999 -0.01016235 C84.44743173 0.00617457 94.81744663 0.00086906 105.18763411 -0.01564157 C114.08195534 -0.02923747 122.97622321 -0.0311857 131.87055147 -0.02332556 C137.1869709 -0.01863987 142.50330708 -0.01804892 147.81972122 -0.02793503 C152.81510678 -0.03657521 157.8102633 -0.030637 162.80562401 -0.01325226 C164.64309877 -0.00927202 166.48059268 -0.01044755 168.31805992 -0.01704025 C170.81785385 -0.02518522 173.3169044 -0.01502063 175.81665039 0 C176.55126735 -0.00669217 177.28588432 -0.01338433 178.0427624 -0.02027929 C180.06350136 0.00342751 180.06350136 0.00342751 183.28134155 0.38095093 C184.27134155 1.86595093 184.27134155 1.86595093 185.28134155 3.38095093 C184.29551212 3.37910734 183.30968269 3.37726376 182.29397964 3.3753643 C158.32516745 3.33099829 134.35636058 3.29811513 110.38751602 3.27732658 C98.79644564 3.26700663 87.20540236 3.25293255 75.61434937 3.23007202 C65.5135737 3.21016017 55.41281767 3.19723973 45.31202292 3.19277394 C39.96195024 3.19016282 34.61193369 3.18401062 29.26187897 3.16949081 C24.22884815 3.15594173 19.19589675 3.15172287 14.16284943 3.15473557 C12.31330942 3.1541842 10.46376682 3.15019088 8.61424255 3.14253998 C6.0932041 3.13262057 3.57246725 3.13497103 1.05142212 3.14044189 C0.31601141 3.13461621 -0.41939929 3.12879053 -1.17709517 3.12278831 C-4.85505538 3.14442913 -7.59315982 3.3480813 -10.71865845 5.38095093 C-11.04865845 4.72095093 -11.37865845 4.06095093 -11.71865845 3.38095093 C-8.14993901 -0.09042891 -4.72143785 -0.04327385 0 0 Z " fill="#B6B6B6" transform="translate(1347.7186584472656,435.6190490722656)"/>
<path d="M0 0 C0.33 0.66 0.66 1.32 1 2 C-0.21484375 4.6015625 -0.21484375 4.6015625 -1.9375 7.625 C-2.50339844 8.62789063 -3.06929687 9.63078125 -3.65234375 10.6640625 C-4.09707031 11.43492187 -4.54179688 12.20578125 -5 13 C-5.66 13 -6.32 13 -7 13 C-6.67 14.32 -6.34 15.64 -6 17 C-7.97746603 17.73080266 -9.98072489 18.39421747 -12 19 C-12.66 18.67 -13.32 18.34 -14 18 C-12.54682061 14.6092481 -10.58699688 12.58699688 -8 10 C-7.67 9.01 -7.34 8.02 -7 7 C-5.66666667 6 -4.33333333 5 -3 4 C-2.67 3.01 -2.34 2.02 -2 1 C-1.34 0.67 -0.68 0.34 0 0 Z " fill="#404040" transform="translate(1331,446)"/>
<path d="M0 0 C0.66 0.33 1.32 0.66 2 1 C2 2.65 2 4.3 2 6 C1.01 6.33 0.02 6.66 -1 7 C-1.99 7.495 -1.99 7.495 -3 8 C-3 9.32 -3 10.64 -3 12 C-3.66 12 -4.32 12 -5 12 C-5 12.66 -5 13.32 -5 14 C-7.90600261 15.25664978 -9.79604584 16 -13 16 C-12.278125 15.319375 -11.55625 14.63875 -10.8125 13.9375 C-8.2223909 11.36210743 -6.16493016 8.56476711 -4.11328125 5.55078125 C-3 4 -3 4 -1 2 C-0.67 1.34 -0.34 0.68 0 0 Z " fill="#505050" transform="translate(1226,568)"/>
<path d="M0 0 C0.33 0.66 0.66 1.32 1 2 C0.33333333 3.66666667 -0.33333333 5.33333333 -1 7 C-0.67 7.66 -0.34 8.32 0 9 C-0.56589844 9.10957031 -1.13179687 9.21914063 -1.71484375 9.33203125 C-2.44832031 9.49058594 -3.18179687 9.64914062 -3.9375 9.8125 C-4.66839844 9.96332031 -5.39929687 10.11414063 -6.15234375 10.26953125 C-6.76207031 10.51058594 -7.37179687 10.75164063 -8 11 C-8.33 11.99 -8.66 12.98 -9 14 C-9.66 13.67 -10.32 13.34 -11 13 C-9.41278572 10.77790001 -7.83943672 8.84415917 -5.875 6.9375 C-3.7755833 5.04757115 -3.7755833 5.04757115 -3 2 C-2.01 1.34 -1.02 0.68 0 0 Z " fill="#3E3E3E" transform="translate(1195,606)"/>
<path d="M0 0 C0 3.65756655 -0.07559351 6.70583091 -2.25 9.75 C-4.44464124 11.31760089 -6.35175278 11.64212875 -9 12 C-9 9 -9 9 -7.125 6.8125 C-5 5 -5 5 -3 5 C-2.690625 4.360625 -2.38125 3.72125 -2.0625 3.0625 C-1 1 -1 1 0 0 Z " fill="#3D3D3D" transform="translate(1139,672)"/>
<path d="M0 0 C2.99324263 1.0975223 3.84610901 1.67682892 5.25 4.625 C5.4975 5.40875 5.745 6.1925 6 7 C4.35 7 2.7 7 1 7 C1 7.66 1 8.32 1 9 C0.34 9 -0.32 9 -1 9 C-1.80967438 6.08517222 -2.21845993 4.53886783 -1.0625 1.6875 C-0.711875 1.130625 -0.36125 0.57375 0 0 Z " fill="#2C2C2C" transform="translate(899,662)"/>
<path d="M0 0 C0.33 0.99 0.66 1.98 1 3 C-0.375 5.0625 -0.375 5.0625 -2 7 C-2.33 7.66 -2.66 8.32 -3 9 C-3.99 9 -4.98 9 -6 9 C-6.33 9.99 -6.66 10.98 -7 12 C-9.0625 13.1875 -9.0625 13.1875 -11 14 C-9.79135813 10.56001929 -8.61442808 8.50075729 -6 6 C-5.67 5.01 -5.34 4.02 -5 3 C-4.34 3 -3.68 3 -3 3 C-1.37485532 1.54166642 -1.37485532 1.54166642 0 0 Z " fill="#565656" transform="translate(1282,504)"/>
<path d="M0 0 C1.65 0.33 3.3 0.66 5 1 C5.33 2.32 5.66 3.64 6 5 C5.29875 5.12375 4.5975 5.2475 3.875 5.375 C0.82343613 6.03838345 -2.05340938 6.97211955 -5 8 C-3.62845496 5.04590299 -2.01136276 2.55991624 0 0 Z " fill="#262626" transform="translate(1266,522)"/>
<path d="M0 0 C8.29050279 3.2849162 8.29050279 3.2849162 10 6 C10.1875 9.1875 10.1875 9.1875 10 12 C8.33333333 10.33333333 6.66666667 8.66666667 5 7 C4.071875 6.113125 3.14375 5.22625 2.1875 4.3125 C0 2 0 2 0 0 Z " fill="#4A4A4A" transform="translate(774,639)"/>
<path d="M0 0 C0.33 0.99 0.66 1.98 1 3 C-0.546875 5.48046875 -0.546875 5.48046875 -2.75 8.1875 C-3.46671875 9.08855469 -4.1834375 9.98960937 -4.921875 10.91796875 C-5.95054688 11.94857422 -5.95054688 11.94857422 -7 13 C-7.99 13 -8.98 13 -10 13 C-8.90092392 10.43548915 -7.9015551 8.90445054 -5.875 6.9375 C-3.65228929 5.09006673 -3.65228929 5.09006673 -4 2 C-2.68 1.34 -1.36 0.68 0 0 Z " fill="#4E4E4E" transform="translate(1253,538)"/>
<path d="M0 0 C0 3 0 3 -1.3125 4.38671875 C-2.875 5.59114583 -4.4375 6.79557292 -6 8 C-7.0625 6.1875 -7.0625 6.1875 -8 4 C-7.67 3.01 -7.34 2.02 -7 1 C-5.5459375 1.0309375 -5.5459375 1.0309375 -4.0625 1.0625 C-1.12534105 1.35618499 -1.12534105 1.35618499 0 0 Z " fill="#292929" transform="translate(1217,704)"/>
<path d="M0 0 C3.3125 0.625 3.3125 0.625 7 2 C8.9375 5.125 8.9375 5.125 10 8 C9.01 8.99 8.02 9.98 7 11 C6.38125 9.63875 6.38125 9.63875 5.75 8.25 C4.10605252 5.19695468 2.50893855 3.3359083 0 1 C0 0.67 0 0.34 0 0 Z " fill="#4B4B4B" transform="translate(822,696)"/>
<path d="M0 0 C1.98 0.99 1.98 0.99 4 2 C4 2.66 4 3.32 4 4 C4.825 4.825 5.65 5.65 6.5 6.5 C9 9 9 9 9 11 C8.01 11.33 7.02 11.66 6 12 C3.44015098 9.77404433 2.67674428 8.28704363 2 5 C1.3530635 3.3255761 0.69040574 1.65697379 0 0 Z " fill="#484848" transform="translate(764,503)"/>
<path d="M0 0 C1.32 0.66 2.64 1.32 4 2 C3.00233891 4.49415272 2.31383315 5.78740335 0.0625 7.3125 C-2 8 -2 8 -5 7 C-4.0409375 6.1028125 -4.0409375 6.1028125 -3.0625 5.1875 C-0.79689611 3.09189663 -0.79689611 3.09189663 0 0 Z " fill="#292929" transform="translate(1308,472)"/>
<path d="M0 0 C0 3.60777515 -0.9904432 5.06295544 -3 8 C-3.99 8.495 -3.99 8.495 -5 9 C-5.99 10.485 -5.99 10.485 -7 12 C-7.66 10.35 -8.32 8.7 -9 7 C-8.21625 6.7525 -7.4325 6.505 -6.625 6.25 C-3.61694992 4.8175952 -3.24509643 3.9690761 -2 1 C-1.34 0.67 -0.68 0.34 0 0 Z " fill="#646464" transform="translate(1257,657)"/>
<path d="M0 0 C0.99 0.33 1.98 0.66 3 1 C1.73046875 2.46484375 0.4609375 3.9296875 -0.80859375 5.39453125 C-2.20871231 7.10712971 -2.20871231 7.10712971 -3 10 C-5.0625 11.1875 -5.0625 11.1875 -7 12 C-7.33 11.34 -7.66 10.68 -8 10 C-7.34 10 -6.68 10 -6 10 C-6 9.34 -6 8.68 -6 8 C-5.34 8 -4.68 8 -4 8 C-3.67 6.02 -3.34 4.04 -3 2 C-2.34 2 -1.68 2 -1 2 C-0.67 1.34 -0.34 0.68 0 0 Z " fill="#3D3D3D" transform="translate(1278,630)"/>
<path d="M0 0 C0 2.97 0 5.94 0 9 C-5.875 4.375 -5.875 4.375 -7 1 C-4.53721199 -0.231394 -2.7204945 -0.07159196 0 0 Z " fill="#3A3A3A" transform="translate(743,594)"/>
<path d="M0 0 C0.99 0.33 1.98 0.66 3 1 C4.1875 3.5625 4.1875 3.5625 5 6 C5.66 6 6.32 6 7 6 C7.66 7.32 8.32 8.64 9 10 C6.03 9.505 6.03 9.505 3 9 C2.01 6.03 1.02 3.06 0 0 Z " fill="#3E3E3E" transform="translate(773,514)"/>
<path d="M0 0 C3 1 3 1 4.0625 2.8125 C4.371875 3.534375 4.68125 4.25625 5 5 C5.37125 5.7425 5.7425 6.485 6.125 7.25 C6.41375 7.8275 6.7025 8.405 7 9 C6.01 8.67 5.02 8.34 4 8 C2.68 8 1.36 8 0 8 C0 5.33333333 0 2.66666667 0 0 Z " fill="#474747" transform="translate(812,559)"/>
<path d="M0 0 C1.65 1.65 3.3 3.3 5 5 C4.01 6.485 4.01 6.485 3 8 C1.02 6.35 -0.96 4.7 -3 3 C-2.01 2.01 -1.02 1.02 0 0 Z " fill="#484848" transform="translate(835,707)"/>
<path d="M0 0 C2.625 1.4375 2.625 1.4375 5 3 C4.67 4.65 4.34 6.3 4 8 C3.01 8.33 2.02 8.66 1 9 C0.690625 8.05125 0.38125 7.1025 0.0625 6.125 C-0.87394742 3.13919592 -0.87394742 3.13919592 -2 1 C-1.34 0.67 -0.68 0.34 0 0 Z " fill="#444444" transform="translate(792,657)"/>
<path d="M0 0 C0.33 0.99 0.66 1.98 1 3 C-0.43359375 5.26171875 -0.43359375 5.26171875 -2.4375 7.6875 C-3.09621094 8.49574219 -3.75492188 9.30398438 -4.43359375 10.13671875 C-5.20896484 11.05904297 -5.20896484 11.05904297 -6 12 C-6.99 11.67 -7.98 11.34 -9 11 C-6.83515595 7.01212939 -4.28817903 4.11511698 -1 1 C-0.67 0.67 -0.34 0.34 0 0 Z " fill="#464646" transform="translate(1205,594)"/>
<path d="M0 0 C0.99 0.33 1.98 0.66 3 1 C2.25 3.4375 2.25 3.4375 1 6 C-1.125 6.8125 -1.125 6.8125 -3 7 C-3.33 6.01 -3.66 5.02 -4 4 C-2.68 2.68 -1.36 1.36 0 0 Z " fill="#090909" transform="translate(1253,656)"/>
<path d="M0 0 C0.33 0.99 0.66 1.98 1 3 C1.99 3.33 2.98 3.66 4 4 C4 4.99 4 5.98 4 7 C2.68 7.33 1.36 7.66 0 8 C-1.32 6.02 -2.64 4.04 -4 2 C-2.68 1.34 -1.36 0.68 0 0 Z " fill="#424242" transform="translate(718,447)"/>
<path d="M0 0 C0.66 0.33 1.32 0.66 2 1 C-0.40016348 5.94151304 -3.52273027 8.04331244 -8 11 C-8.33 10.34 -8.66 9.68 -9 9 C-8.34 9 -7.68 9 -7 9 C-6.67 8.01 -6.34 7.02 -6 6 C-5.34 6 -4.68 6 -4 6 C-2.61061923 4.03852126 -1.2739589 2.03833424 0 0 Z " fill="#7A7A7A" transform="translate(1241,551)"/>
<path d="M0 0 C0.33 0.66 0.66 1.32 1 2 C1.66 2 2.32 2 3 2 C2.67 3.65 2.34 5.3 2 7 C1.34 7 0.68 7 0 7 C0 6.34 0 5.68 0 5 C-1.2065625 4.566875 -1.2065625 4.566875 -2.4375 4.125 C-5 3 -5 3 -6 1 C-3.83125748 1.50603992 -2.00032373 1.99983813 0 3 C0 2.01 0 1.02 0 0 Z " fill="#555555" transform="translate(804,669)"/>
<path d="M0 0 C0 0.99 0 1.98 0 3 C-1.53125 4.38671875 -1.53125 4.38671875 -3.5 5.6875 C-4.47453125 6.34298828 -4.47453125 6.34298828 -5.46875 7.01171875 C-5.9740625 7.33785156 -6.479375 7.66398438 -7 8 C-7 4 -7 4 -5.1875 1.75 C-3 0 -3 0 0 0 Z " fill="#3A3A3A" transform="translate(1315,590)"/>
<path d="M0 0 C0.99 0 1.98 0 3 0 C3.0825 0.5775 3.165 1.155 3.25 1.75 C4.20531013 4.6159304 5.78469173 5.9990764 8 8 C7.67 8.66 7.34 9.32 7 10 C6.21625 9.34 5.4325 8.68 4.625 8 C2.28487188 5.79798559 2.28487188 5.79798559 0 6 C0 4.02 0 2.04 0 0 Z " fill="#656565" transform="translate(857,612)"/>
<path d="M0 0 C0 0.99 0 1.98 0 3 C0.66 3.33 1.32 3.66 2 4 C0.02253397 4.73080266 -1.98072489 5.39421747 -4 6 C-4.66 5.67 -5.32 5.34 -6 5 C-3.74193548 0 -3.74193548 0 0 0 Z " fill="#272727" transform="translate(1323,459)"/>
<path d="M0 0 C2.4932534 0.99730136 3.77467439 1.65074531 5.25 3.9375 C6 6 6 6 6 9 C4.68 9 3.36 9 2 9 C1.855625 7.88625 1.71125 6.7725 1.5625 5.625 C1.21627965 2.17857953 1.21627965 2.17857953 0 0 Z " fill="#5B5B5B" transform="translate(948,719)"/>
<path d="M0 0 C2.5 1.375 2.5 1.375 5 3 C5 3.66 5 4.32 5 5 C3.35 5.66 1.7 6.32 0 7 C-1.125 2.25 -1.125 2.25 0 0 Z " fill="#3D3D3D" transform="translate(922,689)"/>
<path d="M0 0 C4.875 4.75 4.875 4.75 6 7 C5.01 7.33 4.02 7.66 3 8 C1.5 6.8125 1.5 6.8125 0 5 C-0.1875 2.3125 -0.1875 2.3125 0 0 Z " fill="#353535" transform="translate(912,677)"/>
<path d="M0 0 C0.99 0.33 1.98 0.66 3 1 C2.67 1.99 2.34 2.98 2 4 C1.01 4 0.02 4 -1 4 C-1.33 4.99 -1.66 5.98 -2 7 C-2.99 6.34 -3.98 5.68 -5 5 C-3.35 3.35 -1.7 1.7 0 0 Z " fill="#303030" transform="translate(1233,562)"/>
<path d="M0 0 C3.34249629 0.59687434 5.46436342 1.73603877 8 4 C8 4.66 8 5.32 8 6 C6.35 6.33 4.7 6.66 3 7 C0 2.25 0 2.25 0 0 Z " fill="#383838" transform="translate(793,540)"/>
<path d="M0 0 C0.33 2.31 0.66 4.62 1 7 C-3.875 4.375 -3.875 4.375 -5 1 C-2 0 -2 0 0 0 Z " fill="#292929" transform="translate(863,737)"/>
<path d="M0 0 C3.875 2.625 3.875 2.625 5 6 C4.01 6 3.02 6 2 6 C2 6.66 2 7.32 2 8 C1.34 8 0.68 8 0 8 C0 5.36 0 2.72 0 0 Z " fill="#363636" transform="translate(907,671)"/>
<path d="M0 0 C0.99 0.99 1.98 1.98 3 3 C0.53721199 5.46278801 -1.70676982 5.99771255 -5 7 C-3.47793991 4.37098712 -2.15634036 2.15634036 0 0 Z " fill="#2F2F2F" transform="translate(1157,651)"/>
<path d="M0 0 C0.66 0.33 1.32 0.66 2 1 C2 2.32 2 3.64 2 5 C0.02 5.66 -1.96 6.32 -4 7 C-4 5.68 -4 4.36 -4 3 C-2.68 2.67 -1.36 2.34 0 2 C0 1.34 0 0.68 0 0 Z " fill="#5E5E5E" transform="translate(1212,585)"/>
<path d="M0 0 C0.66 1.32 1.32 2.64 2 4 C1.01 4.33 0.02 4.66 -1 5 C-1.66 5.66 -2.32 6.32 -3 7 C-3.99 6.34 -4.98 5.68 -6 5 C-5.01 4.67 -4.02 4.34 -3 4 C-3 3.34 -3 2.68 -3 2 C-2.01 1.34 -1.02 0.68 0 0 Z " fill="#505050" transform="translate(1146,664)"/>
<path d="M0 0 C0.99 0.66 1.98 1.32 3 2 C2 5 2 5 -0.0625 6.1875 C-0.701875 6.455625 -1.34125 6.72375 -2 7 C-2.66 6.34 -3.32 5.68 -4 5 C-2.68 3.35 -1.36 1.7 0 0 Z " fill="#393939" transform="translate(1268,641)"/>
<path d="M0 0 C1.98 0.495 1.98 0.495 4 1 C3.67 2.65 3.34 4.3 3 6 C2.01 6 1.02 6 0 6 C-1.125 2.25 -1.125 2.25 0 0 Z " fill="#090909" transform="translate(1196,606)"/>
<path d="M0 0 C1.32 1.65 2.64 3.3 4 5 C3.34 5 2.68 5 2 5 C1.67 5.66 1.34 6.32 1 7 C0.01 7 -0.98 7 -2 7 C-2 5.35 -2 3.7 -2 2 C-1.34 2 -0.68 2 0 2 C0 1.34 0 0.68 0 0 Z " fill="#232323" transform="translate(851,605)"/>
<path d="M0 0 C0.33 0.66 0.66 1.32 1 2 C0.22265625 3.7265625 0.22265625 3.7265625 -0.9375 5.625 C-1.618125 6.73875 -2.29875 7.8525 -3 9 C-3.66 9 -4.32 9 -5 9 C-4.37315423 6.07471973 -3.51695295 3.58774327 -2 1 C-1.34 0.67 -0.68 0.34 0 0 Z " fill="#474747" transform="translate(1331,446)"/>
<path d="M0 0 C0.33 0.99 0.66 1.98 1 3 C1.66 3.33 2.32 3.66 3 4 C1.35 5.65 -0.3 7.3 -2 9 C-2.33 7.68 -2.66 6.36 -3 5 C-2.34 4.67 -1.68 4.34 -1 4 C-0.34786708 1.97536745 -0.34786708 1.97536745 0 0 Z " fill="#3B3B3B" transform="translate(1236,677)"/>
<path d="M0 0 C2 3 2 3 1.625 5.1875 C1.41875 5.785625 1.2125 6.38375 1 7 C0.34 7 -0.32 7 -1 7 C-1 6.34 -1 5.68 -1 5 C-1.66 4.67 -2.32 4.34 -3 4 C-2.01 2.68 -1.02 1.36 0 0 Z " fill="#353535" transform="translate(1165,641)"/>
<path d="M0 0 C0.33 0.66 0.66 1.32 1 2 C-0.65 3.65 -2.3 5.3 -4 7 C-4.66 5.68 -5.32 4.36 -6 3 C-5.01 2.67 -4.02 2.34 -3 2 C-2.34 2.33 -1.68 2.66 -1 3 C-0.67 2.01 -0.34 1.02 0 0 Z " fill="#4C4C4C" transform="translate(1303,603)"/>
<path d="M0 0 C2.475 0.99 2.475 0.99 5 2 C3.35 3.32 1.7 4.64 0 6 C-0.66 5.01 -1.32 4.02 -2 3 C-1.34 2.01 -0.68 1.02 0 0 Z " fill="#505050" transform="translate(1244,669)"/>
<path d="M0 0 C0.66 0 1.32 0 2 0 C2.33 0.99 2.66 1.98 3 3 C0.69 4.65 -1.62 6.3 -4 8 C-4.33 7.34 -4.66 6.68 -5 6 C-4.360625 5.38125 -3.72125 4.7625 -3.0625 4.125 C-0.96116416 2.17402388 -0.96116416 2.17402388 0 0 Z " fill="#595959" transform="translate(1171,633)"/>
<path d="M0 0 C0.99 0.66 1.98 1.32 3 2 C3.1875 4.625 3.1875 4.625 3 7 C0.24616077 5.62308038 -0.51483101 3.63279958 -2 1 C-1.34 0.67 -0.68 0.34 0 0 Z " fill="#4E4E4E" transform="translate(745,602)"/>
<path d="M0 0 C-0.33 0.99 -0.66 1.98 -1 3 C-4.0625 4.1875 -4.0625 4.1875 -7 5 C-7 4.01 -7 3.02 -7 2 C-4 0 -4 0 0 0 Z " fill="#080808" transform="translate(1280,514)"/>
<path d="M0 0 C0.66 0.33 1.32 0.66 2 1 C2 1.66 2 2.32 2 3 C2.66 3 3.32 3 4 3 C4 3.66 4 4.32 4 5 C3.34 5 2.68 5 2 5 C1.67 5.66 1.34 6.32 1 7 C-0.0625 5.1875 -0.0625 5.1875 -1 3 C-0.67 2.01 -0.34 1.02 0 0 Z " fill="#545454" transform="translate(723,454)"/>
<path d="M0 0 C1.32 1.32 2.64 2.64 4 4 C3.34 4 2.68 4 2 4 C1.67 4.66 1.34 5.32 1 6 C0.01 6 -0.98 6 -2 6 C-1.34 4.02 -0.68 2.04 0 0 Z " fill="#2C2C2C" transform="translate(819,568)"/>
<path d="M0 0 C0.66 0 1.32 0 2 0 C1.67 0.99 1.34 1.98 1 3 C0.67 2.01 0.34 1.02 0 0 Z " fill="#C5C5C5" transform="translate(802,677)"/>
<path d="M0 0 C0.99 0 1.98 0 3 0 C2.67 0.66 2.34 1.32 2 2 C1.34 1.34 0.68 0.68 0 0 Z " fill="#C8C8C8" transform="translate(1309,598)"/>
<path d="M0 0 C0.66 0.66 1.32 1.32 2 2 C1.01 1.67 0.02 1.34 -1 1 C-0.67 0.67 -0.34 0.34 0 0 Z " fill="#D2D2D2" transform="translate(734,464)"/>
<path d="M0 0 C0.99 0.495 0.99 0.495 2 1 C1.01 1.495 1.01 1.495 0 2 C0 1.34 0 0.68 0 0 Z " fill="#C2C2C2" transform="translate(1180,750)"/>
<path d="M0 0 C0.66 0.66 1.32 1.32 2 2 C1.34 2 0.68 2 0 2 C0 1.34 0 0.68 0 0 Z " fill="#BFBFBF" transform="translate(1264,520)"/>
<path d="M0 0 C0.33 0.66 0.66 1.32 1 2 C0.34 1.67 -0.32 1.34 -1 1 C-0.67 0.67 -0.34 0.34 0 0 Z " fill="#C3C3C3" transform="translate(1273,504)"/>
<path d="M0 0 C0.66 0 1.32 0 2 0 C1.67 0.66 1.34 1.32 1 2 C0.67 1.34 0.34 0.68 0 0 Z " fill="#C5C5C5" transform="translate(1321,454)"/>
<path d="" fill="#C8C8C8" transform="translate(0,0)"/>
<path d="M0 0 C2 1 2 1 2 1 Z " fill="#B7B7B7" transform="translate(380,1611)"/>
<path d="" fill="#CDCDCD" transform="translate(0,0)"/>
<path d="M0 0 C2 1 2 1 2 1 Z " fill="#C8C8C8" transform="translate(832,712)"/>
<path d="M0 0 C2 1 2 1 2 1 Z " fill="#CACACA" transform="translate(934,697)"/>
<path d="M0 0 C2 1 2 1 2 1 Z " fill="#C3C3C3" transform="translate(1144,659)"/>
<path d="" fill="#CBCBCB" transform="translate(0,0)"/>
<path d="M0 0 C2 1 2 1 2 1 Z " fill="#CBCBCB" transform="translate(1302,614)"/>
<path d="M0 0 C2 1 2 1 2 1 Z " fill="#CDCDCD" transform="translate(1302,612)"/>
<path d="" fill="#C7C7C7" transform="translate(0,0)"/>
<path d="" fill="#B9B9B9" transform="translate(0,0)"/>
<path d="M0 0 C2 1 2 1 2 1 Z " fill="#C9C9C9" transform="translate(1233,553)"/>
<path d="M0 0 C2 1 2 1 2 1 Z " fill="#CACACA" transform="translate(1241,548)"/>
<path d="" fill="#CBCBCB" transform="translate(0,0)"/>
<path d="" fill="#C7C7C7" transform="translate(0,0)"/>
<path d="" fill="#C8C8C8" transform="translate(0,0)"/>
<path d="M0 0 C2 1 2 1 2 1 Z " fill="#E0E0E0" transform="translate(2043,0)"/>
<path d="" fill="#DDDDDD" transform="translate(0,0)"/>
<path d="" fill="#B4B4B4" transform="translate(0,0)"/>
<path d="" fill="#B9B9B9" transform="translate(0,0)"/>
<path d="" fill="#DCDCDC" transform="translate(0,0)"/>
<path d="" fill="#DDDDDD" transform="translate(0,0)"/>
<path d="" fill="#B5B5B5" transform="translate(0,0)"/>
<path d="" fill="#DEDEDE" transform="translate(0,0)"/>
<path d="" fill="#B3B3B3" transform="translate(0,0)"/>
<path d="" fill="#B9B9B9" transform="translate(0,0)"/>
<path d="" fill="#B6B6B6" transform="translate(0,0)"/>
<path d="" fill="#DDDDDD" transform="translate(0,0)"/>
<path d="" fill="#B3B3B3" transform="translate(0,0)"/>
<path d="" fill="#B9B9B9" transform="translate(0,0)"/>
<path d="" fill="#B8B8B8" transform="translate(0,0)"/>
<path d="" fill="#B8B8B8" transform="translate(0,0)"/>
<path d="" fill="#B9B9B9" transform="translate(0,0)"/>
<path d="" fill="#E2E2E2" transform="translate(0,0)"/>
<path d="" fill="#DBDBDB" transform="translate(0,0)"/>
<path d="" fill="#B8B8B8" transform="translate(0,0)"/>
<path d="" fill="#DCDCDC" transform="translate(0,0)"/>
<path d="" fill="#B6B6B6" transform="translate(0,0)"/>
<path d="" fill="#DCDCDC" transform="translate(0,0)"/>
<path d="" fill="#DDDDDD" transform="translate(0,0)"/>
<path d="" fill="#DBDBDB" transform="translate(0,0)"/>
<path d="" fill="#B3B3B3" transform="translate(0,0)"/>
<path d="" fill="#DBDBDB" transform="translate(0,0)"/>
<path d="" fill="#DCDCDC" transform="translate(0,0)"/>
<path d="" fill="#B8B8B8" transform="translate(0,0)"/>
<path d="" fill="#DEDEDE" transform="translate(0,0)"/>
<path d="" fill="#ADADAD" transform="translate(0,0)"/>
<path d="" fill="#DDDDDD" transform="translate(0,0)"/>
<path d="" fill="#B7B7B7" transform="translate(0,0)"/>
<path d="" fill="#DBDBDB" transform="translate(0,0)"/>
<path d="" fill="#B5B5B5" transform="translate(0,0)"/>
<path d="" fill="#DCDCDC" transform="translate(0,0)"/>
<path d="" fill="#B7B7B7" transform="translate(0,0)"/>
<path d="" fill="#DEDEDE" transform="translate(0,0)"/>
<path d="" fill="#B8B8B8" transform="translate(0,0)"/>
<path d="" fill="#B9B9B9" transform="translate(0,0)"/>
<path d="" fill="#DCDCDC" transform="translate(0,0)"/>
<path d="" fill="#B7B7B7" transform="translate(0,0)"/>
<path d="" fill="#B7B7B7" transform="translate(0,0)"/>
<path d="" fill="#B9B9B9" transform="translate(0,0)"/>
<path d="" fill="#DBDBDB" transform="translate(0,0)"/>
<path d="" fill="#DDDDDD" transform="translate(0,0)"/>
<path d="" fill="#E0E0E0" transform="translate(0,0)"/>
<path d="" fill="#E6E6E6" transform="translate(0,0)"/>
<path d="" fill="#B0B0B0" transform="translate(0,0)"/>
<path d="" fill="#E9E9E9" transform="translate(0,0)"/>
<path d="" fill="#B4B4B4" transform="translate(0,0)"/>
<path d="" fill="#DFDFDF" transform="translate(0,0)"/>
<path d="" fill="#DBDBDB" transform="translate(0,0)"/>
<path d="" fill="#E5E5E5" transform="translate(0,0)"/>
<path d="" fill="#E0E0E0" transform="translate(0,0)"/>
<path d="" fill="#B8B8B8" transform="translate(0,0)"/>
<path d="" fill="#DEDEDE" transform="translate(0,0)"/>
<path d="" fill="#B3B3B3" transform="translate(0,0)"/>
<path d="" fill="#DDDDDD" transform="translate(0,0)"/>
<path d="" fill="#DBDBDB" transform="translate(0,0)"/>
<path d="" fill="#E0E0E0" transform="translate(0,0)"/>
<path d="" fill="#DFDFDF" transform="translate(0,0)"/>
<path d="" fill="#E3E3E3" transform="translate(0,0)"/>
<path d="" fill="#B8B8B8" transform="translate(0,0)"/>
<path d="" fill="#B9B9B9" transform="translate(0,0)"/>
<path d="" fill="#DFDFDF" transform="translate(0,0)"/>
<path d="" fill="#DDDDDD" transform="translate(0,0)"/>
<path d="" fill="#B8B8B8" transform="translate(0,0)"/>
<path d="" fill="#B7B7B7" transform="translate(0,0)"/>
<path d="" fill="#DCDCDC" transform="translate(0,0)"/>
<path d="" fill="#B6B6B6" transform="translate(0,0)"/>
<path d="" fill="#B6B6B6" transform="translate(0,0)"/>
<path d="" fill="#B5B5B5" transform="translate(0,0)"/>
<path d="" fill="#B4B4B4" transform="translate(0,0)"/>
<path d="" fill="#DBDBDB" transform="translate(0,0)"/>
<path d="" fill="#E0E0E0" transform="translate(0,0)"/>
<path d="" fill="#ABABAB" transform="translate(0,0)"/>
<path d="" fill="#DEDEDE" transform="translate(0,0)"/>
<path d="" fill="#B8B8B8" transform="translate(0,0)"/>
<path d="" fill="#B3B3B3" transform="translate(0,0)"/>
<path d="" fill="#DDDDDD" transform="translate(0,0)"/>
<path d="" fill="#E0E0E0" transform="translate(0,0)"/>
<path d="" fill="#B2B2B2" transform="translate(0,0)"/>
<path d="" fill="#DBDBDB" transform="translate(0,0)"/>
<path d="" fill="#DFDFDF" transform="translate(0,0)"/>
<path d="" fill="#B5B5B5" transform="translate(0,0)"/>
<path d="" fill="#E2E2E2" transform="translate(0,0)"/>
<path d="" fill="#B2B2B2" transform="translate(0,0)"/>
<path d="" fill="#B9B9B9" transform="translate(0,0)"/>
<path d="" fill="#DDDDDD" transform="translate(0,0)"/>
<path d="" fill="#B8B8B8" transform="translate(0,0)"/>
<path d="" fill="#B9B9B9" transform="translate(0,0)"/>
<path d="" fill="#DDDDDD" transform="translate(0,0)"/>
<path d="" fill="#DDDDDD" transform="translate(0,0)"/>
<path d="" fill="#B8B8B8" transform="translate(0,0)"/>
<path d="" fill="#B7B7B7" transform="translate(0,0)"/>
<path d="" fill="#AEAEAE" transform="translate(0,0)"/>
<path d="" fill="#B9B9B9" transform="translate(0,0)"/>
<path d="" fill="#E2E2E2" transform="translate(0,0)"/>
<path d="" fill="#ADADAD" transform="translate(0,0)"/>
<path d="" fill="#B8B8B8" transform="translate(0,0)"/>
<path d="" fill="#DDDDDD" transform="translate(0,0)"/>
<path d="" fill="#DDDDDD" transform="translate(0,0)"/>
<path d="" fill="#B7B7B7" transform="translate(0,0)"/>
<path d="" fill="#DBDBDB" transform="translate(0,0)"/>
<path d="" fill="#DCDCDC" transform="translate(0,0)"/>
<path d="" fill="#DBDBDB" transform="translate(0,0)"/>
<path d="" fill="#DBDBDB" transform="translate(0,0)"/>
<path d="" fill="#B8B8B8" transform="translate(0,0)"/>
<path d="" fill="#B8B8B8" transform="translate(0,0)"/>
<path d="" fill="#B9B9B9" transform="translate(0,0)"/>
<path d="" fill="#DFDFDF" transform="translate(0,0)"/>
<path d="" fill="#B8B8B8" transform="translate(0,0)"/>
<path d="" fill="#B8B8B8" transform="translate(0,0)"/>
<path d="" fill="#B9B9B9" transform="translate(0,0)"/>
<path d="" fill="#DCDCDC" transform="translate(0,0)"/>
<path d="" fill="#E0E0E0" transform="translate(0,0)"/>
<path d="" fill="#B8B8B8" transform="translate(0,0)"/>
<path d="" fill="#DBDBDB" transform="translate(0,0)"/>
<path d="" fill="#DCDCDC" transform="translate(0,0)"/>
<path d="" fill="#E0E0E0" transform="translate(0,0)"/>
<path d="" fill="#B5B5B5" transform="translate(0,0)"/>
<path d="" fill="#DEDEDE" transform="translate(0,0)"/>
<path d="" fill="#B4B4B4" transform="translate(0,0)"/>
<path d="" fill="#B5B5B5" transform="translate(0,0)"/>
<path d="" fill="#B9B9B9" transform="translate(0,0)"/>
<path d="" fill="#B4B4B4" transform="translate(0,0)"/>
<path d="" fill="#DCDCDC" transform="translate(0,0)"/>
<path d="" fill="#E0E0E0" transform="translate(0,0)"/>
<path d="" fill="#ADADAD" transform="translate(0,0)"/>
<path d="" fill="#DDDDDD" transform="translate(0,0)"/>
<path d="" fill="#B9B9B9" transform="translate(0,0)"/>
<path d="" fill="#B3B3B3" transform="translate(0,0)"/>
<path d="" fill="#E4E4E4" transform="translate(0,0)"/>
<path d="" fill="#B5B5B5" transform="translate(0,0)"/>
<path d="" fill="#B7B7B7" transform="translate(0,0)"/>
<path d="" fill="#B6B6B6" transform="translate(0,0)"/>
<path d="" fill="#B9B9B9" transform="translate(0,0)"/>
<path d="" fill="#B8B8B8" transform="translate(0,0)"/>
<path d="" fill="#DCDCDC" transform="translate(0,0)"/>
<path d="" fill="#DCDCDC" transform="translate(0,0)"/>
<path d="" fill="#DBDBDB" transform="translate(0,0)"/>
<path d="" fill="#DBDBDB" transform="translate(0,0)"/>
<path d="" fill="#ADADAD" transform="translate(0,0)"/>
<path d="" fill="#E0E0E0" transform="translate(0,0)"/>
<path d="" fill="#B8B8B8" transform="translate(0,0)"/>
<path d="" fill="#DDDDDD" transform="translate(0,0)"/>
<path d="" fill="#DDDDDD" transform="translate(0,0)"/>
<path d="" fill="#B6B6B6" transform="translate(0,0)"/>
<path d="" fill="#B7B7B7" transform="translate(0,0)"/>
<path d="" fill="#B0B0B0" transform="translate(0,0)"/>
<path d="" fill="#DCDCDC" transform="translate(0,0)"/>
<path d="" fill="#A7A7A7" transform="translate(0,0)"/>
<path d="" fill="#B8B8B8" transform="translate(0,0)"/>
<path d="" fill="#B9B9B9" transform="translate(0,0)"/>
</svg>
